<?xml version="1.0" encoding="UTF-8"?>
<svg version="1.1" xmlns="http://www.w3.org/2000/svg" width="300" height="239">
<path d="M0 0 C1.52211358 0.03362924 1.52211358 0.03362924 3.07497692 0.06793785 C4.19532487 0.09801744 5.31567282 0.12809704 6.4699707 0.15908813 C7.64995038 0.18662485 8.82993006 0.21416157 10.04566669 0.24253273 C13.30941387 0.3195959 16.57300953 0.4012762 19.83659959 0.48468018 C23.30317376 0.57196836 26.76989915 0.65274004 30.23661804 0.73403931 C36.92003524 0.89162039 43.60332793 1.05393113 50.28658444 1.21817374 C64.03060358 1.55590121 77.77477201 1.8872925 91.51915717 2.20979357 C93.03546577 2.24537809 94.55177249 2.28104288 96.06807733 2.31678724 C115.09741934 2.76488952 134.12271711 3.13687035 153.1574707 3.26309204 C154.93270955 3.27654544 156.70794762 3.29010269 158.48318481 3.30377197 C165.52695142 3.35509171 172.56977075 3.39389569 179.61372662 3.37295151 C181.70183107 3.37010624 183.78957489 3.3778751 185.87763977 3.39028931 C188.31477554 3.40376168 190.75212798 3.39939907 193.18913269 3.37075806 C200.73434699 3.44268129 205.74668618 5.21911356 212.20825195 9.01309204 C213.85292657 9.83840425 215.50337059 10.65240051 217.16137695 11.45059204 C218.01352783 11.86430054 218.86567871 12.27800903 219.74365234 12.70425415 C231.42084963 18.33438768 243.23374688 23.56877133 255.17993164 28.59707642 C256.40942602 29.11985771 257.63891831 29.64264394 258.8684082 30.16543579 C260.48694702 30.84593994 260.48694702 30.84593994 262.13818359 31.54019165 C265.44746015 33.12785491 268.33159747 34.72510992 271.20825195 37.01309204 C271.90527344 39.17959595 271.90527344 39.17959595 271.8293457 41.48965454 C271.81452148 42.32496704 271.79969727 43.16027954 271.78442383 44.02090454 C271.73866211 44.88457642 271.69290039 45.74824829 271.64575195 46.63809204 C271.61771484 47.94520142 271.61771484 47.94520142 271.58911133 49.27871704 C271.40767596 55.61424403 271.40767596 55.61424403 270.20825195 58.01309204 C269.89477621 60.63883938 269.63210752 63.255022 269.39575195 65.88809204 C268.48132222 75.48114551 267.45997524 85.06072987 266.39575195 94.63809204 C266.31225494 95.3908844 266.22875793 96.14367676 266.14273071 96.91928101 C264.50252953 111.67273222 262.75137287 126.41266208 260.95898438 141.14834595 C259.83428603 150.442257 258.81791033 159.7387186 257.90953064 169.05630493 C257.28593089 175.39490162 256.52173062 181.70420029 255.64575195 188.01309204 C254.69847988 194.97726355 253.85970309 201.88033548 253.5168457 208.90371704 C253.20825195 211.01309204 253.20825195 211.01309204 251.20825195 214.01309204 C249.34411621 214.32666016 249.34411621 214.32666016 247.11645508 214.23721313 C245.90517944 214.1962149 245.90517944 214.1962149 244.66943359 214.15438843 C243.85724365 214.10776062 243.04505371 214.06113281 242.20825195 214.01309204 C241.50240967 213.97532654 240.79656738 213.93756104 240.06933594 213.89865112 C237.93610867 213.76524565 235.8073208 213.60076197 233.67700195 213.42715454 C232.49765327 213.33533905 232.49765327 213.33533905 231.29447937 213.2416687 C228.76545119 213.04392864 226.23685308 212.84121394 223.70825195 212.63809204 C221.96258465 212.49998668 220.21689764 212.36213021 218.47119141 212.22451782 C215.00271055 211.95066652 211.53439348 211.67484921 208.06616211 211.39785767 C203.76405318 211.05538653 199.46106177 210.72702246 195.1574707 210.40371704 C192.90356334 210.2318566 190.649657 210.05998281 188.39575195 209.88809204 C186.86047852 209.77521851 186.86047852 209.77521851 185.29418945 209.6600647 C184.37250977 209.5883606 183.45083008 209.51665649 182.5012207 209.44277954 C181.71255615 209.38332153 180.9238916 209.32386353 180.11132812 209.26260376 C178.20825195 209.01309204 178.20825195 209.01309204 176.20825195 208.01309204 C176.90950195 208.73496704 177.61075195 209.45684204 178.33325195 210.20059204 C178.72770508 210.60664673 179.1221582 211.01270142 179.52856445 211.43106079 C181.34132818 213.19858587 181.34132818 213.19858587 184.12231445 215.18887329 C187.76886943 218.20518033 189.50255879 221.77314926 191.45825195 226.01309204 C191.96485352 227.06109985 191.96485352 227.06109985 192.48168945 228.13027954 C194.20294948 231.7218851 195.7257048 235.30672416 197.20825195 239.01309204 C146.38825195 239.01309204 95.56825195 239.01309204 43.20825195 239.01309204 C56.882165 213.94425146 56.882165 213.94425146 64.83325195 208.07559204 C68.09145023 205.24610407 69.50933876 201.92343974 71.20825195 198.01309204 C70.50297363 198.50954224 69.79769531 199.00599243 69.07104492 199.51748657 C58.91441461 204.82360266 38.94440435 197.97398774 28.08325195 196.13809204 C23.85189814 195.42985354 19.62000226 194.7248931 15.38793945 194.02090454 C14.35803894 193.8493988 13.32813843 193.67789307 12.26702881 193.50119019 C5.61051396 192.39751044 -1.05033098 191.32967219 -7.72143555 190.31777954 C-8.49568878 190.19895416 -9.26994202 190.08012878 -10.06765747 189.95770264 C-14.94779634 189.22857485 -19.80469256 188.72722851 -24.72781372 188.38128662 C-26.79174805 188.01309204 -26.79174805 188.01309204 -28.79174805 186.01309204 C-29.75980196 176.49717285 -28.28007925 166.79585955 -27.1472168 157.34512329 C-26.97439207 155.85664775 -26.80223244 154.36809486 -26.63069153 152.87947083 C-26.17969858 148.98106716 -25.71992079 145.08375087 -25.25811768 141.18661499 C-24.79989514 137.3071179 -24.34981631 133.4266783 -23.89916992 129.54629517 C-23.198916 123.52404251 -22.49388121 117.50237092 -21.78515625 111.48110962 C-20.75152337 102.69659889 -19.73938913 93.90964783 -18.73869324 85.12132263 C-18.12958612 79.80440908 -17.47227565 74.50047746 -16.72924805 69.20059204 C-15.97532654 63.70861097 -15.41693488 58.21971117 -14.91674805 52.70059204 C-14.07410718 43.584434 -13.13268597 34.47984374 -12.11077881 25.38214111 C-11.94086735 23.85441357 -11.77500013 22.32623037 -11.61334229 20.79760742 C-11.38313886 18.62975482 -11.13801828 16.46405702 -10.8894043 14.29824829 C-10.75026611 13.03891479 -10.61112793 11.7795813 -10.46777344 10.48208618 C-9.76076635 6.85411087 -8.68195198 4.17944307 -6.79174805 1.01309204 C-4.31143325 -0.22706536 -2.77204848 -0.06828141 0 0 Z " fill="#F2C486" transform="translate(28.791748046875,-0.013092041015625)"/>
<path d="M0 0 C3.12448372 -0.14781037 6.24804764 -0.23488062 9.375 -0.3125 C10.24511719 -0.35439453 11.11523438 -0.39628906 12.01171875 -0.43945312 C19.21186805 -0.57278922 23.82112787 1.4902986 30 5 C31.64455668 5.82554719 33.29575485 6.63798827 34.953125 7.4375 C35.80527588 7.8512085 36.65742676 8.26491699 37.53540039 8.69116211 C49.21259768 14.32129563 61.02549493 19.55567929 72.97167969 24.58398438 C74.20117407 25.10676567 75.43066636 25.6295519 76.66015625 26.15234375 C78.27869507 26.8328479 78.27869507 26.8328479 79.92993164 27.52709961 C83.2392082 29.11476287 86.12334552 30.71201788 89 33 C89.69702148 35.16650391 89.69702148 35.16650391 89.62109375 37.4765625 C89.60626953 38.311875 89.59144531 39.1471875 89.57617188 40.0078125 C89.53041016 40.87148438 89.48464844 41.73515625 89.4375 42.625 C89.40946289 43.93210937 89.40946289 43.93210937 89.38085938 45.265625 C89.199424 51.60115199 89.199424 51.60115199 88 54 C87.68652425 56.62574734 87.42385557 59.24192996 87.1875 61.875 C86.27307027 71.46805347 85.25172329 81.04763783 84.1875 90.625 C84.10400299 91.37779236 84.02050598 92.13058472 83.93447876 92.90618896 C82.29427758 107.65964018 80.54312092 122.39957004 78.75073242 137.13525391 C77.62603408 146.42916496 76.60965838 155.72562656 75.70127869 165.04321289 C75.07767894 171.38180957 74.31347866 177.69110825 73.4375 184 C72.49022793 190.96417151 71.65145113 197.86724343 71.30859375 204.890625 C71 207 71 207 69 210 C67.13586426 210.31356812 67.13586426 210.31356812 64.90820312 210.22412109 C63.69692749 210.18312286 63.69692749 210.18312286 62.46118164 210.14129639 C61.6489917 210.09466858 60.83680176 210.04804077 60 210 C59.29415771 209.9622345 58.58831543 209.92446899 57.86108398 209.88555908 C55.72785672 209.75215361 53.59906885 209.58766993 51.46875 209.4140625 C50.28940132 209.32224701 50.28940132 209.32224701 49.08622742 209.22857666 C46.55719924 209.0308366 44.02860113 208.8281219 41.5 208.625 C39.7543327 208.48689464 38.00864569 208.34903817 36.26293945 208.21142578 C32.7944586 207.93757448 29.32614153 207.66175717 25.85791016 207.38476562 C21.55580123 207.04229449 17.25280982 206.71393042 12.94921875 206.390625 C10.69531139 206.21876456 8.44140505 206.04689077 6.1875 205.875 C4.65222656 205.76212646 4.65222656 205.76212646 3.0859375 205.64697266 C2.16425781 205.57526855 1.24257812 205.50356445 0.29296875 205.4296875 C-0.4956958 205.37022949 -1.28436035 205.31077148 -2.09692383 205.24951172 C-4 205 -4 205 -6 204 C-5.29875 204.721875 -4.5975 205.44375 -3.875 206.1875 C-3.48054687 206.59355469 -3.08609375 206.99960938 -2.6796875 207.41796875 C-0.86692377 209.18549383 -0.86692377 209.18549383 1.9140625 211.17578125 C5.56061748 214.19208829 7.29430684 217.76005722 9.25 222 C9.75660156 223.04800781 9.75660156 223.04800781 10.2734375 224.1171875 C11.99469752 227.70879306 13.51745285 231.29363212 15 235 C-35.82 235 -86.64 235 -139 235 C-125.32608696 209.93115942 -125.32608696 209.93115942 -117.375 204.0625 C-114.11680173 201.23301203 -112.6989132 197.9103477 -111 194 C-111.70495605 194.49653076 -112.40991211 194.99306152 -113.13623047 195.50463867 C-123.23293887 200.77679033 -143.06738512 194.0060732 -153.875 192.1875 C-155.96865312 191.83991072 -158.06240279 191.49290252 -160.15625 191.14648438 C-165.36584034 190.28307929 -170.57415984 189.41227187 -175.78210449 188.53900146 C-181.37756137 187.60175554 -186.97399541 186.67037445 -192.5703125 185.73828125 C-194.59131279 185.40147377 -196.6123093 185.06464358 -198.63330078 184.7277832 C-200.08886719 184.4851888 -201.54443359 184.2425944 -203 184 C-203 183.34 -203 182.68 -203 182 C-204.98 182 -206.96 182 -209 182 C-209 181.67 -209 181.34 -209 181 C-199.85233342 180.77627989 -190.86128461 181.01106854 -181.75 181.875 C-167.41652964 183.22187499 -153.04407673 183.72549699 -138.66308594 184.30224609 C-137.70685333 184.34150711 -136.75062073 184.38076813 -135.76541138 184.42121887 C-133.97066185 184.49454269 -132.17580452 184.56529635 -130.38082886 184.63285828 C-125.31103131 184.83958698 -120.29682395 185.24737256 -115.25125122 185.78031921 C-112.48097696 186.05064712 -109.72781911 186.15858238 -106.9453125 186.2109375 C-105.30792114 186.25057617 -105.30792114 186.25057617 -103.63745117 186.29101562 C-101.89878784 186.33258789 -101.89878784 186.33258789 -100.125 186.375 C-86.22032321 186.77385637 -72.41612645 187.85211654 -58.56439209 189.09016418 C-45.20661839 190.27934296 -31.92282628 191.16877085 -18.5 191.0625 C-17.37980469 191.05798828 -16.25960937 191.05347656 -15.10546875 191.04882812 C-12.40358372 191.03728161 -9.70182505 191.02100701 -7 191 C-6.95101562 190.175 -6.90203125 189.35 -6.8515625 188.5 C-6.42245018 181.87095455 -5.82647649 175.33062299 -4.9375 168.75 C-4.22194632 163.44090971 -3.81514736 158.27823401 -4.02734375 152.91796875 C-4 151 -4 151 -3 148 C-2.74841635 145.87107683 -2.53841446 143.73714077 -2.3515625 141.6015625 C-2.17367187 139.67376953 -2.17367187 139.67376953 -1.9921875 137.70703125 C-1.7491445 135.02519961 -1.51384619 132.34294187 -1.28125 129.66015625 C-0.5914513 122.27050419 0.53966733 115.28648627 2.32226562 108.08642578 C3.4097376 103.13404078 3.73889862 98.17559705 4.0625 93.125 C4.21874571 91.02454392 4.37759454 88.92427984 4.5390625 86.82421875 C4.61543945 85.82310059 4.69181641 84.82198242 4.77050781 83.79052734 C5.47016885 75.28294681 6.77106227 66.92048039 8.5 58.5625 C10.91946121 46.80562067 12.0537831 34.93994113 13.125 23 C13.21273682 22.03255859 13.30047363 21.06511719 13.39086914 20.06835938 C13.75249378 15.85585197 14.035789 11.72862688 13.9296875 7.5 C14 4 14 4 16 1 C10.72 1 5.44 1 0 1 C0 0.67 0 0.34 0 0 Z " fill="#A56F35" transform="translate(211,4)"/>
<path d="M0 0 C10.72167285 -0.2126557 21.31068277 0.37445502 32.00067139 1.11062622 C37.15726679 1.46508388 42.31489123 1.80367104 47.47265625 2.140625 C49.10273621 2.24722191 49.10273621 2.24722191 50.76574707 2.35597229 C66.04555701 3.34194823 81.33742535 4.12421515 96.62866211 4.90942383 C108.46464524 5.52704583 120.26753548 6.31157499 132.07817078 7.30303955 C138.37734571 7.82134807 144.66462485 8.21812082 150.98046875 8.45703125 C151.74628769 8.48630707 152.51210663 8.51558289 153.3011322 8.54574585 C154.05793777 8.57455841 154.81474335 8.60337097 155.59448242 8.63305664 C169.59679971 9.16761654 182.87866618 10.09294479 196.44921875 13.87890625 C200.78288221 15.06702247 205.04551196 15.4398073 209.51635742 15.77807617 C212.38334591 16.03425356 215.04157341 16.60229783 217.8125 17.375 C224.49328491 19.15712791 231.23251717 20.58843923 238 22 C238 22.33 238 22.66 238 23 C237.22849609 22.9498877 236.45699219 22.89977539 235.66210938 22.84814453 C232.63372687 22.65162942 229.60532213 22.45546085 226.5769043 22.25949097 C225.1929445 22.16987196 223.80899266 22.08013005 222.42504883 21.99026489 C214.30513231 21.4631491 206.18475638 20.94687751 198.0625 20.45703125 C196.61392989 20.36901738 195.16536215 20.2809645 193.71679688 20.19287109 C191.62387285 20.06562468 189.53091665 19.93931814 187.43774414 19.81622314 C185.48959586 19.70162271 183.54166774 19.58329821 181.59375 19.46484375 C180.48708984 19.399021 179.38042969 19.33319824 178.24023438 19.26538086 C174.79931168 18.98356328 171.41230374 18.52042488 168 18 C168 18.66 168 19.32 168 20 C168.66 20.185625 169.32 20.37125 170 20.5625 C182.03134774 26.32752079 186.30953993 38.27384983 191 50 C140.18 50 89.36 50 37 50 C50.67391304 24.93115942 50.67391304 24.93115942 58.625 19.0625 C61.88319827 16.23301203 63.3010868 12.9103477 65 9 C64.4332959 9.33544327 63.8665918 9.67088654 63.28271484 10.01649475 C60.65348693 11.14929478 59.29199895 11.09843419 56.4765625 10.73608398 C55.15446777 10.57098831 55.15446777 10.57098831 53.80566406 10.40255737 C52.87979492 10.26971344 51.95392578 10.13686951 51 10 C50.08702148 9.86997589 49.17404297 9.73995178 48.23339844 9.60598755 C45.27694427 9.16574652 42.3259019 8.69866064 39.375 8.22265625 C38.30628662 8.05124619 37.23757324 7.87983612 36.13647461 7.70323181 C33.89751641 7.34264573 31.65883066 6.98036412 29.42041016 6.61645508 C25.98333905 6.05980166 22.54448993 5.51516179 19.10546875 4.97070312 C16.92436005 4.61792319 14.74336605 4.26443314 12.5625 3.91015625 C11.53237793 3.74862564 10.50225586 3.58709503 9.44091797 3.42066956 C8.4923291 3.26388229 7.54374023 3.10709503 6.56640625 2.94555664 C5.73052979 2.81089493 4.89465332 2.67623322 4.03344727 2.53749084 C2 2 2 2 0 0 Z " fill="#430802" transform="translate(35,189)"/>
<path d="M0 0 C1.61070421 0.04344264 3.2215327 0.08246649 4.83244324 0.11743164 C8.25657354 0.1991183 11.67835875 0.30762388 15.10101318 0.43701172 C20.46969354 0.63599412 25.83811571 0.74989643 31.20947266 0.84765625 C41.28830428 1.03756306 51.36490856 1.28727667 61.4420166 1.55212402 C66.20409568 1.67623286 70.96631148 1.79486703 75.72851562 1.9140625 C84.96107303 2.14590557 94.19347307 2.38344845 103.42578125 2.625 C103.42578125 2.955 103.42578125 3.285 103.42578125 3.625 C88.57578125 3.955 73.72578125 4.285 58.42578125 4.625 C58.42578125 5.615 58.42578125 6.605 58.42578125 7.625 C57.80703125 8.07875 57.18828125 8.5325 56.55078125 9 C53.93738798 10.99847721 53.45533384 12.53634224 52.42578125 15.625 C51.09653587 19.61273613 49.95542191 21.33173065 46.42578125 23.625 C45.35137184 24.46413728 44.28875686 25.31858807 43.23828125 26.1875 C42.62082031 26.69796875 42.00335938 27.2084375 41.3671875 27.734375 C39.30846641 29.61831135 39.30846641 29.61831135 37.640625 32.203125 C32.6828967 39.10254808 32.6828967 39.10254808 28.27832031 40.12207031 C24.1523844 40.56897696 20.09254095 40.55155068 15.94921875 40.46484375 C10.52243164 40.43626366 6.32848978 41.8342155 2.30078125 45.625 C1.68203125 46.285 1.06328125 46.945 0.42578125 47.625 C-1.24088542 48.625 -2.90755208 49.625 -4.57421875 50.625 C-5.23421875 51.32625 -5.89421875 52.0275 -6.57421875 52.75 C-9.03380965 55.05586647 -10.22407868 55.39658136 -13.57421875 55.625 C-16.27121384 55.40401716 -18.89519594 55.0336645 -21.57421875 54.625 C-21.90421875 53.635 -22.23421875 52.645 -22.57421875 51.625 C-23.56421875 51.13 -23.56421875 51.13 -24.57421875 50.625 C-24.24421875 50.295 -23.91421875 49.965 -23.57421875 49.625 C-23.50273676 48.27256083 -23.49022421 46.91665633 -23.51171875 45.5625 C-23.53234375 44.263125 -23.55296875 42.96375 -23.57421875 41.625 C-25.88421875 41.625 -28.19421875 41.625 -30.57421875 41.625 C-30.57421875 40.635 -30.57421875 39.645 -30.57421875 38.625 C-32.63731251 38.73978413 -34.69970229 38.86726198 -36.76171875 39 C-38.48455078 39.10441406 -38.48455078 39.10441406 -40.2421875 39.2109375 C-43.39608458 39.60286375 -45.67496049 40.39516132 -48.57421875 41.625 C-52.75507257 41.84897431 -56.5066188 41.61108484 -60.57421875 40.625 C-59.90923492 36.23610675 -58.38664198 32.6438515 -56.57421875 28.625 C-60.86421875 28.625 -65.15421875 28.625 -69.57421875 28.625 C-69.90421875 27.965 -70.23421875 27.305 -70.57421875 26.625 C-69.630625 26.39425781 -68.68703125 26.16351562 -67.71484375 25.92578125 C-53.25222291 22.29544173 -38.57519884 17.0710263 -26.93130493 7.43865967 C-18.05930781 0.41210649 -11.07462808 -0.5387839 0 0 Z " fill="#C89358" transform="translate(96.57421875,1.375)"/>
<path d="M0 0 C2.13366379 0.09495592 4.2611344 0.14279524 6.39648438 0.17236328 C14.55645578 0.43260928 22.23325377 1.72633442 30.19335938 3.48095703 C31.15540283 3.69002686 32.11744629 3.89909668 33.10864258 4.11450195 C34.00929443 4.3256665 34.90994629 4.53683105 35.83789062 4.75439453 C37.04409058 5.03549072 37.04409058 5.03549072 38.2746582 5.32226562 C40.61483896 6.19301794 41.76805913 7.22861999 43.38085938 9.10595703 C35.84705282 10.0944352 29.24436372 10.0579113 21.77929688 8.57861328 C19.00998272 8.03286896 17.9155723 7.83860057 15.38085938 9.10595703 C13.81781437 9.10024206 12.25476791 9.05269096 10.69335938 8.98095703 C5.90065599 8.9326852 2.6813816 9.87299357 -1.61914062 12.10595703 C-2.67101562 12.60095703 -3.72289062 13.09595703 -4.80664062 13.60595703 C-7.6021625 14.98840855 -7.6021625 14.98840855 -9.74414062 16.79345703 C-11.61914062 18.10595703 -11.61914062 18.10595703 -15.61914062 18.10595703 C-15.82410156 18.70279297 -16.0290625 19.29962891 -16.24023438 19.91455078 C-18.16825394 22.9786272 -20.40657004 23.70462929 -23.68164062 25.16845703 C-26.90236685 26.55760205 -26.90236685 26.55760205 -29.61914062 28.10595703 C-30.11414063 29.59095703 -30.11414063 29.59095703 -30.61914062 31.10595703 C-34.59477106 33.1312782 -37.12421083 34.10595703 -41.61914062 34.10595703 C-41.61914062 34.76595703 -41.61914062 35.42595703 -41.61914062 36.10595703 C-47.49974289 38.12262448 -52.86319499 38.47215327 -59.05664062 38.48095703 C-60.41112305 38.51769531 -60.41112305 38.51769531 -61.79296875 38.55517578 C-67.26807766 38.57896337 -71.12682736 37.86977659 -75.88037109 35.10205078 C-77.87535143 33.89659708 -77.87535143 33.89659708 -81.30664062 32.73095703 C-85.22159712 30.81041234 -86.89366263 28.46039149 -89.61914062 25.10595703 C-92.76902936 23.236725 -92.76902936 23.236725 -95.61914062 22.10595703 C-95.61914062 21.44595703 -95.61914062 20.78595703 -95.61914062 20.10595703 C-96.60914062 19.77595703 -97.59914063 19.44595703 -98.61914062 19.10595703 C-98.61914062 18.44595703 -98.61914062 17.78595703 -98.61914062 17.10595703 C-100.26914063 17.10595703 -101.91914062 17.10595703 -103.61914062 17.10595703 C-102.14221755 12.42903395 -102.14221755 12.42903395 -99.49414062 10.79345703 C-98.87539062 10.56658203 -98.25664063 10.33970703 -97.61914062 10.10595703 C-97.61914062 8.78595703 -97.61914062 7.46595703 -97.61914062 6.10595703 C-94.62086602 4.51863518 -93.24278339 3.91741387 -89.93164062 4.91845703 C-88.83851562 5.31033203 -87.74539062 5.70220703 -86.61914062 6.10595703 C-83.29536509 6.569392 -79.96508336 6.8546807 -76.61914062 7.10595703 C-76.28914063 8.09595703 -75.95914063 9.08595703 -75.61914062 10.10595703 C-71.13950723 9.99512631 -66.66064313 9.86472515 -62.18164062 9.73095703 C-60.92158203 9.70001953 -59.66152344 9.66908203 -58.36328125 9.63720703 C-52.23276155 9.44512809 -46.46620539 9.10719562 -40.51733398 7.57861328 C-37.74919019 6.88933658 -34.94993693 6.61871267 -32.11914062 6.29345703 C-27.83397761 5.68762364 -25.01772369 4.9727339 -21.49414062 2.48095703 C-15.08343683 -1.51838112 -7.26037591 -0.33759335 0 0 Z " fill="#6E0503" transform="translate(195.619140625,197.89404296875)"/>
<path d="M0 0 C16.83 0.33 33.66 0.66 51 1 C51 1.33 51 1.66 51 2 C48.69 2.33 46.38 2.66 44 3 C43.67 3.99 43.34 4.98 43 6 C42.34 6 41.68 6 41 6 C40.773125 6.53625 40.54625 7.0725 40.3125 7.625 C36.90607729 13.789003 31.61121914 18.81326254 26 23 C25.34 23 24.68 23 24 23 C24 23.99 24 24.98 24 26 C19.00972631 28.49513685 14.90358523 29.40186092 9.33203125 29.69140625 C6.83164408 30.02227825 5.2225888 30.85419335 3 32 C2.01 32 1.02 32 0 32 C0 32.66 0 33.32 0 34 C-4.259419 36.2855419 -8.34478811 37.73039676 -13 39 C-14.299375 39.5878125 -14.299375 39.5878125 -15.625 40.1875 C-18.47515345 41.1625525 -20.14114137 40.81681675 -23 40 C-23 39.34 -23 38.68 -23 38 C-23.73605469 38.144375 -24.47210938 38.28875 -25.23046875 38.4375 C-26.20628906 38.623125 -27.18210937 38.80875 -28.1875 39 C-29.15042969 39.185625 -30.11335938 39.37125 -31.10546875 39.5625 C-33.7934206 39.96877612 -36.28771019 40.07933572 -39 40 C-39 38.35 -39 36.7 -39 35 C-38.01 35 -37.02 35 -36 35 C-36 34.34 -36 33.68 -36 33 C-34.56640625 31.625 -34.56640625 31.625 -32.5625 30 C-27.31116975 25.54574666 -21.11443825 20.2288765 -18 14 C-17.01 14 -16.02 14 -15 14 C-14.6596875 13.12601563 -14.6596875 13.12601563 -14.3125 12.234375 C-12.6404838 9.38796646 -10.72023189 8.1003903 -8 6.25 C-6.6696875 5.32960938 -6.6696875 5.32960938 -5.3125 4.390625 C-3 3 -3 3 -1 3 C-0.67 2.01 -0.34 1.02 0 0 Z " fill="#422612" transform="translate(106,2)"/>
<path d="M0 0 C0.495 0.99 0.495 0.99 1 2 C1.969375 1.979375 2.93875 1.95875 3.9375 1.9375 C6.84373384 1.92575764 9.62054143 2.17725511 12.5 2.5625 C16.57187922 3.06537359 19.97930968 2.76991942 24 2 C24 1.67 24 1.34 24 1 C30.35490407 0.6822548 35.58506674 1.47184067 41.71484375 3.1328125 C47.42667216 4.6405722 53.21824222 5.79404165 59 7 C59 7.33 59 7.66 59 8 C58.22849609 7.9498877 57.45699219 7.89977539 56.66210938 7.84814453 C53.63372687 7.65162942 50.60532213 7.45546085 47.5769043 7.25949097 C46.1929445 7.16987196 44.80899266 7.08013005 43.42504883 6.99026489 C35.30513231 6.4631491 27.18475638 5.94687751 19.0625 5.45703125 C17.61392989 5.36901738 16.16536215 5.2809645 14.71679688 5.19287109 C12.62387285 5.06562468 10.53091665 4.93931814 8.43774414 4.81622314 C6.48959586 4.70162271 4.54166774 4.58329821 2.59375 4.46484375 C1.48708984 4.399021 0.38042969 4.33319824 -0.75976562 4.26538086 C-4.20068832 3.98356328 -7.58769626 3.52042488 -11 3 C-11 3.66 -11 4.32 -11 5 C-10.01 5.2784375 -10.01 5.2784375 -9 5.5625 C3.01535414 11.31985719 7.33192839 23.28029815 12 35 C-0.3786435 35.06959436 -12.75724024 35.1228593 -25.13603973 35.15543652 C-30.88438339 35.17107409 -36.63259291 35.19227773 -42.38085938 35.22631836 C-47.93108941 35.25897953 -53.48119065 35.27686737 -59.0315094 35.28463173 C-61.14614387 35.29016308 -63.2607715 35.30096445 -65.37535095 35.31719017 C-68.34348637 35.33905403 -71.31109353 35.34196315 -74.27929688 35.34057617 C-75.14820557 35.351362 -76.01711426 35.36214783 -76.91235352 35.3732605 C-82.59468501 35.34463916 -86.78402442 34.27355519 -92 32 C-88.9783156 31.19680482 -86.39550025 30.89285129 -83.26171875 30.9375 C-82.35873047 30.94523437 -81.45574219 30.95296875 -80.52539062 30.9609375 C-78.64518006 30.98681789 -76.76497169 31.01285754 -74.88476562 31.0390625 C-69.79781775 31.08244798 -65.01255527 30.88497528 -60 30 C-60 29.34 -60 28.68 -60 28 C-58.73160474 27.49384702 -57.46016898 26.99530901 -56.1875 26.5 C-55.47980469 26.2215625 -54.77210938 25.943125 -54.04296875 25.65625 C-52 25 -52 25 -49 25 C-48.95359375 24.12214844 -48.95359375 24.12214844 -48.90625 23.2265625 C-47.52227943 19.82628997 -44.64879548 18.885887 -41.5 17.375 C-37.03370792 15.49058478 -37.03370792 15.49058478 -34 12 C-32.28707766 11.24236127 -30.57128419 10.4899195 -28.8359375 9.78515625 C-25.48670121 8.35282328 -22.50551089 6.32056788 -19.4375 4.375 C-14.49731874 1.58823108 -10.00906814 1.97422694 -4.4609375 2.16015625 C-1.82022838 2.26002384 -1.82022838 2.26002384 0 0 Z " fill="#0C131C" transform="translate(214,204)"/>
<path d="M0 0 C2.31 0 4.62 0 7 0 C5.81884424 5.90577878 4.01337745 10.54249831 -1 14 C-1 14.99 -1 15.98 -1 17 C-0.01 17.33 0.98 17.66 2 18 C2.598125 18.78375 3.19625 19.5675 3.8125 20.375 C5.83740779 23.16840362 5.83740779 23.16840362 8.9375 24.4375 C12.12316317 26.06283835 13.38702263 27.72356215 15.515625 30.515625 C17.9106083 32.9106083 20.81809852 33.89096982 23.92578125 35.12890625 C26.25974225 36.10908196 28.01708256 37.44199344 30 39 C31.64797236 39.71162443 33.31165408 40.39031953 35 41 C35 41.33 35 41.66 35 42 C15.86 42 -3.28 42 -23 42 C-9.32608696 16.93115942 -9.32608696 16.93115942 -1.375 11.0625 C1.88319827 8.23301203 3.3010868 4.9103477 5 1 C3.35 1.66 1.7 2.32 0 3 C0 2.01 0 1.02 0 0 Z " fill="#324A62" transform="translate(95,197)"/>
<path d="M0 0 C2.375 0 2.375 0 5 1 C11.64194652 8.93343612 10.69639841 20.14801069 10 30 C9.30488664 34.12102919 8.28061046 38.02569167 7 42 C6.649375 43.175625 6.29875 44.35125 5.9375 45.5625 C5 48 5 48 3 51 C0.125 51.5625 0.125 51.5625 -3 51 C-8.14033151 45.00294657 -9.37169158 38.58296294 -9.3125 30.875 C-9.30831055 30.12871338 -9.30412109 29.38242676 -9.29980469 28.61352539 C-9.10207179 18.81838476 -7.21821748 7.21821748 0 0 Z " fill="#9A662F" transform="translate(255,98)"/>
<path d="M0 0 C0.53882813 0.24621094 1.07765625 0.49242187 1.6328125 0.74609375 C0.87097656 1.69355469 0.87097656 1.69355469 0.09375 2.66015625 C-6.14082437 10.76276788 -9.98122404 18.91011908 -13.3515625 28.56640625 C-14.3671875 30.74609375 -14.3671875 30.74609375 -17.2421875 32.24609375 C-17.8609375 32.46910156 -18.4796875 32.69210938 -19.1171875 32.921875 C-21.48875781 33.75673509 -21.48875781 33.75673509 -24.1796875 35.0390625 C-30.60560604 37.96515041 -35.31016738 39.33417876 -42.3671875 38.74609375 C-41.3771875 38.25109375 -41.3771875 38.25109375 -40.3671875 37.74609375 C-40.5321875 36.65296875 -40.6971875 35.55984375 -40.8671875 34.43359375 C-41.3671875 30.74609375 -41.3671875 30.74609375 -41.3671875 27.74609375 C-45.9871875 27.74609375 -50.6071875 27.74609375 -55.3671875 27.74609375 C-55.6971875 27.08609375 -56.0271875 26.42609375 -56.3671875 25.74609375 C-55.42359375 25.51535156 -54.48 25.28460937 -53.5078125 25.046875 C-35.37239805 20.49460799 -20.0077559 12.5004349 -5.109375 1.3359375 C-2.3671875 -0.25390625 -2.3671875 -0.25390625 0 0 Z " fill="#3F2513" transform="translate(82.3671875,2.25390625)"/>
<path d="M0 0 C4.07707365 3.50817965 5.49140841 6.48231186 6.0625 11.8125 C5.5065574 17.00129762 4.0211735 20.07885201 0.1875 23.625 C-4.07866363 26.50466045 -8.27468291 26.99121919 -13.3125 26.3125 C-18.10928945 23.91410527 -20.94933712 21.12971665 -23.3125 16.3125 C-24.15178774 11.54226255 -23.80105428 8.25471183 -21.5625 3.9375 C-15.38024064 -3.27513592 -8.53030121 -4.34562514 0 0 Z " fill="#3E230F" transform="translate(89.3125,94.6875)"/>
<path d="M0 0 C4.09639419 2.58216287 7.16364196 5.46973937 9 10 C9.46612801 14.81665605 9.52190197 17.01211413 7.25 21.3125 C3.93935745 25.2668786 1.19031196 27.51156077 -4.015625 28.30859375 C-8.60797393 28.57353696 -11.33450637 28.24871797 -14.9375 25.25 C-18.57625625 21.84350479 -19.90967261 19.12005967 -20.3125 14.125 C-20.185339 10.10072843 -19.30223681 7.37661399 -17 4 C-11.45818688 -0.27181428 -6.87926072 -2.06629809 0 0 Z " fill="#3D220E" transform="translate(145,94)"/>
<path d="M0 0 C1.04671875 0.01869141 2.0934375 0.03738281 3.171875 0.05664062 C9.24923454 0.19717956 15.22079292 0.67438906 21.25 1.4375 C17.63294438 5.34227595 13.86751994 8.14595236 9.25 10.8125 C8.25987915 11.39112793 8.25987915 11.39112793 7.24975586 11.98144531 C5.89801621 12.76702742 4.54377223 13.54831679 3.18701172 14.32519531 C1.42962653 15.33435172 -0.31525921 16.36519791 -2.05859375 17.3984375 C-10.86710726 22.43501576 -22.30948419 28.1000712 -32.75 27.4375 C-29.70194541 22.70095474 -26.35384832 18.31444736 -22.8125 13.9375 C-22.30009766 13.29941406 -21.78769531 12.66132813 -21.25976562 12.00390625 C-20.24316173 10.74057892 -19.21575135 9.48586451 -18.17724609 8.24047852 C-16.73181379 6.49256189 -16.73181379 6.49256189 -15.67041016 4.64819336 C-11.82956274 -1.31031523 -6.32733763 -0.27259768 0 0 Z " fill="#937666" transform="translate(58.75,0.5625)"/>
<path d="M0 0 C-1.3028476 3.90854281 -2.87479817 4.37504511 -6.375 6.4375 C-10.46820058 8.82082153 -10.46820058 8.82082153 -13.6640625 12.22265625 C-14.10492188 12.80917969 -14.54578125 13.39570313 -15 14 C-15.99 14 -16.98 14 -18 14 C-18.2165625 14.53109375 -18.433125 15.0621875 -18.65625 15.609375 C-20.49840252 18.88669285 -22.96137769 21.50802551 -25.5 24.25 C-25.99886719 24.80429687 -26.49773437 25.35859375 -27.01171875 25.9296875 C-28.2968354 27.3285008 -29.64433768 28.66944254 -31 30 C-31.66 30 -32.32 30 -33 30 C-33.495 31.485 -33.495 31.485 -34 33 C-34.66 33 -35.32 33 -36 33 C-36 33.66 -36 34.32 -36 35 C-36.99 35 -37.98 35 -39 35 C-39 36.65 -39 38.3 -39 40 C-37.68 40.33 -36.36 40.66 -35 41 C-36.65 41 -38.3 41 -40 41 C-40 40.01 -40 39.02 -40 38 C-42.06309376 38.11478413 -44.12548354 38.24226198 -46.1875 38.375 C-47.91033203 38.47941406 -47.91033203 38.47941406 -49.66796875 38.5859375 C-52.82186583 38.97786375 -55.10074174 39.77016132 -58 41 C-62.18085382 41.22397431 -65.93240005 40.98608484 -70 40 C-69.33501617 35.61110675 -67.81242323 32.0188515 -66 28 C-63.90649311 31.4019487 -63.82057837 34.05272412 -64 38 C-56.0100917 38.90794412 -48.56263673 35.37509115 -42 31 C-40.68 31 -39.36 31 -38 31 C-37.85304687 30.41734375 -37.70609375 29.8346875 -37.5546875 29.234375 C-35.5688346 21.97574025 -32.62774051 15.57748098 -29 9 C-28.61328125 8.08863281 -28.2265625 7.17726563 -27.828125 6.23828125 C-22.52811274 -3.6914476 -9.66517332 -0.72331155 0 0 Z " fill="#795C4A" transform="translate(106,2)"/>
<path d="M0 0 C6.27 0 12.54 0 19 0 C20.54419993 17.50093249 20.54419993 17.50093249 19 24 C17 26 17 26 14.93701172 26.13525391 C14.10959473 26.08288574 13.28217773 26.03051758 12.4296875 25.9765625 C11.53378906 25.925 10.63789063 25.8734375 9.71484375 25.8203125 C8.77769531 25.75585938 7.84054688 25.69140625 6.875 25.625 C5.93011719 25.56828125 4.98523438 25.5115625 4.01171875 25.453125 C1.67373519 25.31142903 -0.66320944 25.16000217 -3 25 C-3.08215488 22.52013979 -3.14103045 20.0430887 -3.1875 17.5625 C-3.21263672 16.87478516 -3.23777344 16.18707031 -3.26367188 15.47851562 C-3.34929852 9.34193958 -2.10950762 6.32852286 0 0 Z " fill="#D2B37B" transform="translate(178,154)"/>
<path d="M0 0 C0.66 0 1.32 0 2 0 C1.88900857 3.66722902 1.7586501 7.33353236 1.625 11 C1.5940625 12.02996094 1.563125 13.05992188 1.53125 14.12109375 C1.30392368 20.06946577 0.60020717 25.27454394 -1 31 C-2.99532257 42.12424937 -3.35215601 53.31830881 -3.65844727 64.5949707 C-3.81540952 70.14886537 -4.11184988 75.50586202 -5 81 C-5.27667443 84.40078987 -5.49933175 87.80213017 -5.71875 91.20703125 C-6 94 -6 94 -7 96 C-7.20782993 98.03788794 -7.36720146 100.08085101 -7.5 102.125 C-8.02122642 109.54433225 -8.02122642 109.54433225 -8.5 113.1875 C-10.08075081 122.63430157 -10.08075081 122.63430157 -9 132 C-9.66 132 -10.32 132 -11 132 C-11.12846313 133.12027588 -11.12846313 133.12027588 -11.25952148 134.26318359 C-11.64828891 137.63425127 -12.04282038 141.00461963 -12.4375 144.375 C-12.57220703 145.550625 -12.70691406 146.72625 -12.84570312 147.9375 C-13.04389648 149.61972656 -13.04389648 149.61972656 -13.24609375 151.3359375 C-13.42676392 152.89127197 -13.42676392 152.89127197 -13.61108398 154.47802734 C-14 157 -14 157 -15 159 C-13.02 159 -11.04 159 -9 159 C-9 159.66 -9 160.32 -9 161 C-11.875 161.125 -11.875 161.125 -15 161 C-17 159 -17 159 -17.25312805 156.51176453 C-17.18244949 147.70647567 -16.40219053 139.06415175 -15.35546875 130.33203125 C-15.18264403 128.84355571 -15.01048439 127.35500282 -14.83894348 125.86637878 C-14.38795053 121.96797512 -13.92817274 118.07065883 -13.46636963 114.17352295 C-13.0081471 110.29402586 -12.55806826 106.41358626 -12.10742188 102.53320312 C-11.40716795 96.51095047 -10.70213316 90.48927888 -9.9934082 84.46801758 C-8.95977532 75.68350685 -7.94764109 66.89655579 -6.94694519 58.10823059 C-6.33783876 52.79132302 -5.68082577 47.48734082 -4.9375 42.1875 C-3.99803109 35.38605565 -3.37544209 28.56848154 -2.75415039 21.73242188 C-2.07788982 14.44569751 -1.1421967 7.22986207 0 0 Z " fill="#EBD2AB" transform="translate(17,27)"/>
<path d="M0 0 C9.14766658 -0.22372011 18.13871539 0.01106854 27.25 0.875 C41.58347036 2.22187499 55.95592327 2.72549699 70.33691406 3.30224609 C71.77126297 3.36113762 71.77126297 3.36113762 73.23458862 3.42121887 C75.02933815 3.49454269 76.82419548 3.56529635 78.61917114 3.63285828 C83.6683459 3.83874606 88.66139448 4.24503385 93.68637085 4.77586365 C96.80277046 5.07776961 99.90981841 5.19597708 103.0390625 5.28125 C104.27914062 5.31863281 105.51921875 5.35601562 106.796875 5.39453125 C109.35676492 5.46505883 111.9166608 5.53537002 114.4765625 5.60546875 C120.71632087 5.79396145 126.82493461 6.06674075 133 7 C133 7.33 133 7.66 133 8 C109.50336785 8.39468027 86.23492488 7.76291039 62.79272461 6.06713867 C60.88918097 5.92988686 58.98561712 5.7929149 57.08203125 5.65625 C56.18578537 5.5917012 55.28953949 5.5271524 54.36613464 5.46064758 C47.89722642 5.01396705 41.48571698 4.81593551 35 5 C35.97533691 5.16081055 36.95067383 5.32162109 37.95556641 5.48730469 C56.32971848 8.51965 74.69443386 11.57274643 93 15 C93 15.33 93 15.66 93 16 C80.2034865 15.51236655 67.73015809 13.30854177 55.125 11.1875 C53.03134688 10.83991072 50.93759721 10.49290252 48.84375 10.14648438 C43.63415966 9.28307929 38.42584016 8.41227187 33.21789551 7.53900146 C27.62243863 6.60175554 22.02600459 5.67037445 16.4296875 4.73828125 C14.40868721 4.40147377 12.3876907 4.06464358 10.36669922 3.7277832 C8.91113281 3.4851888 7.45556641 3.2425944 6 3 C6 2.34 6 1.68 6 1 C4.02 1 2.04 1 0 1 C0 0.67 0 0.34 0 0 Z " fill="#BA9D78" transform="translate(2,185)"/>
<path d="M0 0 C0.99 0.495 0.99 0.495 2 1 C1.38125 1.86625 0.7625 2.7325 0.125 3.625 C-2.07548576 6.77429549 -2.07548576 6.77429549 -2.8125 9.8125 C-5.62424611 17.35981851 -12.85207472 26.06578701 -19.92578125 30.09765625 C-22.29928842 31.15418636 -24.37807153 32 -27 32 C-27 32.66 -27 33.32 -27 34 C-28.485 34.05607422 -28.485 34.05607422 -30 34.11328125 C-37.18502306 34.44723559 -43.36035698 35.03587365 -50 38 C-52.32671854 38.68939809 -54.66067594 39.35466922 -57 40 C-57.85464844 40.27199219 -58.70929688 40.54398438 -59.58984375 40.82421875 C-60.93755859 41.25154297 -60.93755859 41.25154297 -62.3125 41.6875 C-63.15425781 41.95949219 -63.99601562 42.23148438 -64.86328125 42.51171875 C-67 43 -67 43 -69 42 C-69 40.35 -69 38.7 -69 37 C-70.32 36.67 -71.64 36.34 -73 36 C-71.02 36 -69.04 36 -67 36 C-66.67 36.66 -66.34 37.32 -66 38 C-60.41499433 37.80101292 -60.41499433 37.80101292 -56 35 C-54.1953125 34.40234375 -54.1953125 34.40234375 -52.125 33.9375 C-51.44695312 33.78152344 -50.76890625 33.62554687 -50.0703125 33.46484375 C-49.38710937 33.31144531 -48.70390625 33.15804687 -48 33 C-46.66585599 32.66992631 -45.33227237 32.33754883 -44 32 C-44 31.34 -44 30.68 -44 30 C-38.45169019 27.16132986 -33.14864993 26.25493078 -26.98828125 25.4296875 C-24.5888358 25.0846692 -22.33145675 24.64668143 -20 24 C-20 23.01 -20 22.02 -20 21 C-17.8046875 19.01953125 -17.8046875 19.01953125 -14.875 16.8125 C-10.49246619 13.37190074 -7.1741926 10.08118933 -4.12109375 5.43359375 C-3.56615234 4.72396484 -3.56615234 4.72396484 -3 4 C-2.34 4 -1.68 4 -1 4 C-0.67 2.68 -0.34 1.36 0 0 Z " fill="#A67441" transform="translate(150,4)"/>
<path d="M0 0 C1.17691406 0.26425781 2.35382813 0.52851563 3.56640625 0.80078125 C4.51386719 1.09339844 5.46132812 1.38601562 6.4375 1.6875 C6.7675 2.3475 7.0975 3.0075 7.4375 3.6875 C6.7775 3.6875 6.1175 3.6875 5.4375 3.6875 C5.7675 4.6775 6.0975 5.6675 6.4375 6.6875 C9.25082196 7.76741689 9.25082196 7.76741689 12.625 8.4375 C13.75292969 8.70046875 14.88085938 8.9634375 16.04296875 9.234375 C19.48008302 9.69318427 22.07265833 9.44318523 25.4375 8.6875 C25.1075 9.3475 24.7775 10.0075 24.4375 10.6875 C22.11593403 11.09479228 19.7806213 11.43188677 17.4375 11.6875 C17.7675 12.3475 18.0975 13.0075 18.4375 13.6875 C21.71305608 14.15751033 21.71305608 14.15751033 25.5 14.3125 C27.43552734 14.42464844 27.43552734 14.42464844 29.41015625 14.5390625 C30.90869141 14.61253906 30.90869141 14.61253906 32.4375 14.6875 C32.1075 15.3475 31.7775 16.0075 31.4375 16.6875 C28.1375 16.6875 24.8375 16.6875 21.4375 16.6875 C20.9425 18.1725 20.9425 18.1725 20.4375 19.6875 C20.4375 19.0275 20.4375 18.3675 20.4375 17.6875 C19.38691406 17.58953125 18.33632812 17.4915625 17.25390625 17.390625 C-0.70938672 15.54061328 -0.70938672 15.54061328 -5.5625 10.6875 C-5.2325 12.9975 -4.9025 15.3075 -4.5625 17.6875 C-9.4375 15.0625 -9.4375 15.0625 -10.5625 11.6875 C-11.2225 11.3575 -11.8825 11.0275 -12.5625 10.6875 C-12.5625 7.7175 -12.5625 4.7475 -12.5625 1.6875 C-11.2425 2.0175 -9.9225 2.3475 -8.5625 2.6875 C-8.5625 1.6975 -8.5625 0.7075 -8.5625 -0.3125 C-5.50822078 -1.83963961 -3.2717749 -0.7577876 0 0 Z " fill="#810201" transform="translate(111.5625,205.3125)"/>
<path d="M0 0 C0.33 0 0.66 0 1 0 C1.81087281 14.75338028 -0.29472663 29.20494731 -2.20068359 43.79292297 C-2.81808647 48.52978666 -3.39461897 53.2705237 -3.9453125 58.015625 C-5.11118077 68.04247299 -6.35473115 78.0594767 -7.60449219 88.07617188 C-8.0011089 91.25889855 -8.39509101 94.44194495 -8.7890625 97.625 C-12.42115984 126.84231967 -12.42115984 126.84231967 -14 130 C-15.98 130 -17.96 130 -20 130 C-20.33 129.34 -20.66 128.68 -21 128 C-19.02 128 -17.04 128 -15 128 C-14.95101562 127.175 -14.90203125 126.35 -14.8515625 125.5 C-14.42245018 118.87095455 -13.82647649 112.33062299 -12.9375 105.75 C-12.22194632 100.44090971 -11.81514736 95.27823401 -12.02734375 89.91796875 C-12 88 -12 88 -11 85 C-10.74841635 82.87107683 -10.53841446 80.73714077 -10.3515625 78.6015625 C-10.23296875 77.31636719 -10.114375 76.03117187 -9.9921875 74.70703125 C-9.7491445 72.02519961 -9.51384619 69.34294187 -9.28125 66.66015625 C-8.5914513 59.27050419 -7.46033267 52.28648627 -5.67773438 45.08642578 C-4.59028319 40.13413546 -4.26058645 35.17557081 -3.9375 30.125 C-3.78403763 28.04015752 -3.62778809 25.95551832 -3.46875 23.87109375 C-3.39269531 22.87190918 -3.31664062 21.87272461 -3.23828125 20.84326172 C-1.99242946 5.97728837 -1.99242946 5.97728837 0 0 Z " fill="#C18C4E" transform="translate(219,67)"/>
<path d="M0 0 C11.60949079 -0.26391001 23.11920691 0.45786706 34.69726562 1.22680664 C37.88900091 1.4384283 41.0811512 1.64257985 44.2734375 1.84570312 C46.32554913 1.97873092 48.37763352 2.11217957 50.4296875 2.24609375 C51.84397537 2.33678383 51.84397537 2.33678383 53.28683472 2.42930603 C58.5567539 2.78244617 63.76588861 3.29015378 69 4 C68.34 5.32 67.68 6.64 67 8 C64.69 8 62.38 8 60 8 C60 8.99 60 9.98 60 11 C49.38537052 9.7717267 38.86027098 8.23016751 28.33374023 6.39550781 C26.04030597 5.99613519 23.74583953 5.60315511 21.45117188 5.2109375 C14.26013294 3.97361946 7.10335595 2.68088514 0 1 C0 0.67 0 0.34 0 0 Z " fill="#582E0C" transform="translate(35,189)"/>
<path d="M0 0 C3.3 0.33 6.6 0.66 10 1 C6.38287337 4.90485261 2.61738661 7.70809206 -2 10.375 C-2.98685791 10.95254028 -2.98685791 10.95254028 -3.99365234 11.54174805 C-5.99066711 12.70359077 -7.99503892 13.85194141 -10 15 C-11.12664063 15.65871094 -12.25328125 16.31742188 -13.4140625 16.99609375 C-20.64155806 21.08464051 -29.4642642 26 -38 26 C-38 25.34 -38 24.68 -38 24 C-37.37351563 23.66226562 -36.74703125 23.32453125 -36.1015625 22.9765625 C-35.28429688 22.53054687 -34.46703125 22.08453125 -33.625 21.625 C-32.81289063 21.18414063 -32.00078125 20.74328125 -31.1640625 20.2890625 C-28.89185698 19.0556107 -28.89185698 19.0556107 -27 17 C-25.906875 16.731875 -24.81375 16.46375 -23.6875 16.1875 C-19.88164287 15.27141334 -19.88164287 15.27141334 -17.4375 12.4375 C-15 10 -15 10 -11.9375 9.5 C-8.01683142 8.83265216 -7.28935638 7.12878706 -5 4 C-2.8125 2.8125 -2.8125 2.8125 -1 2 C-0.67 1.34 -0.34 0.68 0 0 Z " fill="#785D4C" transform="translate(70,1)"/>
<path d="M0 0 C8.00563529 -0.11738468 15.94604468 0.28116691 23.93188477 0.79956055 C26.06177796 0.93745325 28.19196953 1.06966607 30.32226562 1.20117188 C37.23846019 1.63613556 44.12142402 2.14880498 51 3 C51 3.33 51 3.66 51 4 C49.88625 4.309375 48.7725 4.61875 47.625 4.9375 C44.2054845 5.82326483 44.2054845 5.82326483 42 7 C17.64961595 10.30936428 17.64961595 10.30936428 8 4 C7.34 3.34 6.68 2.68 6 2 C4.01178687 1.60235737 2.01055661 1.26224651 0 1 C0 0.67 0 0.34 0 0 Z " fill="#552E0C" transform="translate(109,193)"/>
<path d="M0 0 C16.74333059 -0.20432113 33.34797916 -0.22258595 50.0456543 1.21606445 C59.80320755 2.04576092 69.54344664 2.40586425 79.33129883 2.65795898 C81.01195435 2.70545288 81.01195435 2.70545288 82.7265625 2.75390625 C83.72252441 2.77783447 84.71848633 2.8017627 85.74462891 2.82641602 C88 3 88 3 89 4 C92.52082315 4.5010227 96.04870145 4.90192452 99.58203125 5.3046875 C102.94213059 5.98822771 104.516916 6.71080921 107 9 C100.525119 8.11129084 100.525119 8.11129084 97.58023071 7.48716736 C94.99593004 6.99923156 92.52895903 6.77923907 89.90380859 6.64282227 C88.90932709 6.58922043 87.91484558 6.53561859 86.89022827 6.48039246 C85.82043732 6.42627701 84.75064636 6.37216156 83.6484375 6.31640625 C82.52893707 6.25661087 81.40943665 6.19681549 80.25601196 6.13520813 C77.86508604 6.00756101 75.47408149 5.88137961 73.08300781 5.75653076 C66.91683101 5.43387017 60.75133805 5.09885132 54.5859375 4.76171875 C53.3874115 4.69619812 52.1888855 4.63067749 50.95404053 4.56317139 C39.43705963 3.9262812 27.93979182 3.12802043 16.44287109 2.1953125 C12.73429278 1.89880414 9.02369224 1.63670993 5.3125 1.375 C3.72888672 1.26285156 3.72888672 1.26285156 2.11328125 1.1484375 C1.41589844 1.09945312 0.71851562 1.05046875 0 1 C0 0.67 0 0.34 0 0 Z " fill="#975E32" transform="translate(119,193)"/>
<path d="M0 0 C1.38294718 0.01329757 2.76582404 0.03715018 4.1484375 0.0703125 C4.85484375 0.07933594 5.56125 0.08835938 6.2890625 0.09765625 C8.03399848 0.12123647 9.77876045 0.15710789 11.5234375 0.1953125 C11.5234375 0.8553125 11.5234375 1.5153125 11.5234375 2.1953125 C8.5407469 3.71979881 5.7052355 5.13471317 2.5234375 6.1953125 C2.23210938 6.82308594 1.94078125 7.45085938 1.640625 8.09765625 C0.14022391 10.91484291 -1.47172676 11.46316824 -4.3515625 12.7578125 C-7.01227949 13.96903441 -9.29437047 15.05416373 -11.609375 16.84765625 C-13.4765625 18.1953125 -13.4765625 18.1953125 -16.4765625 18.1953125 C-16.8065625 19.1853125 -17.1365625 20.1753125 -17.4765625 21.1953125 C-18.1365625 20.8653125 -18.7965625 20.5353125 -19.4765625 20.1953125 C-17.18715458 17.23522489 -14.89465364 14.27754746 -12.6015625 11.3203125 C-11.95058594 10.47855469 -11.29960938 9.63679687 -10.62890625 8.76953125 C-9.69111328 7.56103516 -9.69111328 7.56103516 -8.734375 6.328125 C-8.1583252 5.58449707 -7.58227539 4.84086914 -6.98876953 4.07470703 C-3.88581295 0.2183041 -3.88581295 0.2183041 0 0 Z " fill="#AF947F" transform="translate(50.4765625,0.8046875)"/>
<path d="M0 0 C1.65 0.33 3.3 0.66 5 1 C5.17387838 8.00584959 4.5176452 14.63609505 3.5 21.5625 C3.35691406 22.57119141 3.21382812 23.57988281 3.06640625 24.61914062 C2.7164815 27.08027802 2.36091674 29.5404548 2 32 C0.35 31.67 -1.3 31.34 -3 31 C-3.57014005 20.42073458 -1.82283831 10.37281803 0 0 Z " fill="#5C4520" transform="translate(221,92)"/>
<path d="M0 0 C6.27 0 12.54 0 19 0 C19 2.97 19 5.94 19 9 C16.41659616 9.02703562 13.83347692 9.04685611 11.25 9.0625 C10.52039063 9.07087891 9.79078125 9.07925781 9.0390625 9.08789062 C5.51329442 9.10391684 2.38965084 8.95292713 -1 8 C-0.67 5.36 -0.34 2.72 0 0 Z " fill="#7E7048" transform="translate(178,154)"/>
<path d="M0 0 C0.33 0.66 0.66 1.32 1 2 C1.969375 1.979375 2.93875 1.95875 3.9375 1.9375 C6.84373384 1.92575764 9.62054143 2.17725511 12.5 2.5625 C16.57187922 3.06537359 19.97930968 2.76991942 24 2 C24 1.67 24 1.34 24 1 C30.35490407 0.6822548 35.58506674 1.47184067 41.71484375 3.1328125 C47.42667216 4.6405722 53.21824222 5.79404165 59 7 C59 7.33 59 7.66 59 8 C58.22849609 7.9498877 57.45699219 7.89977539 56.66210938 7.84814453 C53.63372687 7.65162942 50.60532213 7.45546085 47.5769043 7.25949097 C46.1929445 7.16987196 44.80899266 7.08013005 43.42504883 6.99026489 C35.30513231 6.4631491 27.18475638 5.94687751 19.0625 5.45703125 C17.61392989 5.36901738 16.16536215 5.2809645 14.71679688 5.19287109 C12.62387285 5.06562468 10.53091665 4.93931814 8.43774414 4.81622314 C6.48959586 4.70162271 4.54166774 4.58329821 2.59375 4.46484375 C1.48708984 4.399021 0.38042969 4.33319824 -0.75976562 4.26538086 C-4.20068832 3.98356328 -7.58769626 3.52042488 -11 3 C-11 3.66 -11 4.32 -11 5 C-13.31 5 -15.62 5 -18 5 C-17 3 -17 3 -15.2890625 2.37109375 C-11.67450066 1.78511529 -8.10964804 2.03788043 -4.4609375 2.16015625 C-1.82022838 2.26002384 -1.82022838 2.26002384 0 0 Z " fill="#4D311D" transform="translate(214,204)"/>
<path d="M0 0 C6.6 0.33 13.2 0.66 20 1 C19.67 3.64 19.34 6.28 19 9 C12.4 9 5.8 9 -1 9 C-0.67 6.03 -0.34 3.06 0 0 Z " fill="#7C6E44" transform="translate(176,164)"/>
<path d="M0 0 C1.22589844 0.01353516 1.22589844 0.01353516 2.4765625 0.02734375 C3.10304687 0.03894531 3.72953125 0.05054688 4.375 0.0625 C1.00238888 2.89549334 -2.59882375 4.33699589 -6.625 6.0625 C-7.305625 6.59875 -7.98625 7.135 -8.6875 7.6875 C-10.625 9.0625 -10.625 9.0625 -13.75 9.5 C-15.173125 9.7784375 -15.173125 9.7784375 -16.625 10.0625 C-17.82503343 11.87851365 -17.82503343 11.87851365 -18.625 14.0625 C-21.59410906 17.66784672 -24.1680217 18.81454608 -28.625 20.0625 C-29.65625 20.454375 -30.6875 20.84625 -31.75 21.25 C-34.63301308 22.06476457 -35.87955345 22.11844098 -38.625 21.0625 C-36.975 20.7325 -35.325 20.4025 -33.625 20.0625 C-33.5940625 19.47726563 -33.563125 18.89203125 -33.53125 18.2890625 C-32.14727943 14.88878997 -29.27379548 13.948387 -26.125 12.4375 C-21.65870792 10.55308478 -21.65870792 10.55308478 -18.625 7.0625 C-16.91629941 6.30672859 -15.20469341 5.55610801 -13.47265625 4.85546875 C-11.04498445 3.81357155 -8.85852295 2.46642871 -6.625 1.0625 C-4.21954362 -0.14022819 -2.67503047 -0.03821472 0 0 Z " fill="#180304" transform="translate(198.625,208.9375)"/>
<path d="M0 0 C1.65 0.33 3.3 0.66 5 1 C5.27733386 9.5511272 4.52016163 17.58481953 3 26 C3.66 26.33 4.32 26.66 5 27 C3.515 29.475 3.515 29.475 2 32 C0.68 31.67 -0.64 31.34 -2 31 C-2.33358056 20.51074452 -1.30618118 10.39113779 0 0 Z " fill="#624B27" transform="translate(285,114)"/>
<path d="M0 0 C1.98 0 3.96 0 6 0 C6.66 3.3 7.32 6.6 8 10 C13.81689044 9.75762957 16.6476609 8.0558715 21.14453125 4.4375 C23.33032971 2.74408141 25.31777979 1.68971377 28 1 C28.99 1.33 29.98 1.66 31 2 C27.86274714 5.31652445 24.91318269 7.69222559 21 10 C20.34 10.70125 19.68 11.4025 19 12.125 C16.5404091 14.43086647 15.35014007 14.77158136 12 15 C9.30300491 14.77901716 6.67902281 14.4086645 4 14 C3.67 13.01 3.34 12.02 3 11 C2.34 10.67 1.68 10.34 1 10 C1.33 9.67 1.66 9.34 2 9 C2.07148199 7.64756083 2.08399454 6.29165633 2.0625 4.9375 C2.041875 3.638125 2.02125 2.33875 2 1 C1.34 0.67 0.68 0.34 0 0 Z " fill="#C8945C" transform="translate(71,42)"/>
<path d="M0 0 C5.94 0.33 11.88 0.66 18 1 C18 3.64 18 6.28 18 9 C12.06 9 6.12 9 0 9 C0 6.03 0 3.06 0 0 Z " fill="#8F8356" transform="translate(15,145)"/>
<path d="M0 0 C5.94 0.33 11.88 0.66 18 1 C17.67 3.64 17.34 6.28 17 9 C14.91673869 9.02709444 12.83337559 9.04643873 10.75 9.0625 C9.00976562 9.07990234 9.00976562 9.07990234 7.234375 9.09765625 C4.59022872 9.01782092 2.50173909 8.78643778 0 8 C0 5.36 0 2.72 0 0 Z " fill="#908357" transform="translate(14,155)"/>
<path d="M0 0 C0.33 0 0.66 0 1 0 C0.58414495 8.94805355 -0.31478318 17.74759106 -1.5 26.625 C-2.52089494 34.32241516 -3.24188095 41.92706291 -3.5 49.6875 C-4.37981906 75.75963812 -4.37981906 75.75963812 -8 83 C-9.98 83 -11.96 83 -14 83 C-14.33 82.34 -14.66 81.68 -15 81 C-13.02 81 -11.04 81 -9 81 C-8.95101562 80.175 -8.90203125 79.35 -8.8515625 78.5 C-8.42245018 71.87095455 -7.82647649 65.33062299 -6.9375 58.75 C-6.22194632 53.44090971 -5.81514736 48.27823401 -6.02734375 42.91796875 C-6 41 -6 41 -5 38 C-4.73671615 35.81256652 -4.51499263 33.62003444 -4.31640625 31.42578125 C-4.19330078 30.11802734 -4.07019531 28.81027344 -3.94335938 27.46289062 C-3.75253844 25.3941571 -3.56364853 23.32527952 -3.37768555 21.25610352 C-2.72300747 14.0268967 -2.07122922 6.98479466 0 0 Z " fill="#E0AB67" transform="translate(213,114)"/>
<path d="M0 0 C8.85646928 0.54464918 8.85646928 0.54464918 11.859375 3.6171875 C12.7565625 4.82375 12.7565625 4.82375 13.671875 6.0546875 C13.341875 7.0446875 13.011875 8.0346875 12.671875 9.0546875 C14.321875 9.7146875 15.971875 10.3746875 17.671875 11.0546875 C13.86256539 12.45516897 11.03787444 11.64618736 7.171875 10.6796875 C6.0478125 10.40382812 4.92375 10.12796875 3.765625 9.84375 C2.7446875 9.58335937 1.72375 9.32296875 0.671875 9.0546875 C-0.1221875 8.85617188 -0.91625 8.65765625 -1.734375 8.453125 C-2.2603125 8.32164062 -2.78625 8.19015625 -3.328125 8.0546875 C-3.37054223 5.72173975 -3.36905437 3.38766183 -3.328125 1.0546875 C-2.328125 0.0546875 -2.328125 0.0546875 0 0 Z " fill="#400702" transform="translate(106.328125,192.9453125)"/>
<path d="M0 0 C3.375 0.6875 3.375 0.6875 4.375 1.6875 C6.05683948 1.92037008 7.7462416 2.10014166 9.4375 2.25 C10.81615234 2.37568359 10.81615234 2.37568359 12.22265625 2.50390625 C13.28806641 2.59478516 13.28806641 2.59478516 14.375 2.6875 C14.705 3.6775 15.035 4.6675 15.375 5.6875 C24.615 5.6875 33.855 5.6875 43.375 5.6875 C43.375 6.0175 43.375 6.3475 43.375 6.6875 C39.33654588 6.73712653 35.29821113 6.77332632 31.25952148 6.79736328 C29.88709417 6.80738926 28.51468805 6.82101356 27.14233398 6.83837891 C25.16399473 6.86277627 23.18549633 6.87294484 21.20703125 6.8828125 C20.01827393 6.89328613 18.8295166 6.90375977 17.60473633 6.91455078 C14.40257516 6.68943854 12.26456999 6.02339437 9.375 4.6875 C7.82179694 4.27568511 6.25881841 3.89863942 4.6875 3.5625 C3.92050781 3.39492187 3.15351562 3.22734375 2.36328125 3.0546875 C0.3841932 2.62696501 0.3841932 2.62696501 -1.625 2.6875 C-1.625 3.6775 -1.625 4.6675 -1.625 5.6875 C-2.945 5.3575 -4.265 5.0275 -5.625 4.6875 C-5.625 7.6575 -5.625 10.6275 -5.625 13.6875 C-4.635 14.0175 -3.645 14.3475 -2.625 14.6875 C-1.9375 16.75 -1.9375 16.75 -1.625 18.6875 C-2.615 18.3575 -3.605 18.0275 -4.625 17.6875 C-4.625 17.0275 -4.625 16.3675 -4.625 15.6875 C-5.615 15.3575 -6.605 15.0275 -7.625 14.6875 C-7.625 14.0275 -7.625 13.3675 -7.625 12.6875 C-9.275 12.6875 -10.925 12.6875 -12.625 12.6875 C-11.14807692 8.01057692 -11.14807692 8.01057692 -8.5 6.375 C-7.571875 6.0346875 -7.571875 6.0346875 -6.625 5.6875 C-6.625 4.3675 -6.625 3.0475 -6.625 1.6875 C-3.625 -0.3125 -3.625 -0.3125 0 0 Z " fill="#6B0302" transform="translate(104.625,202.3125)"/>
<path d="M0 0 C0.66 0.33 1.32 0.66 2 1 C-3.06554174 5.4048189 -6.00442739 6.47612898 -12.6875 6.109375 C-15.2622887 5.98759445 -17.51269404 6.33671841 -20 7 C-20 7.66 -20 8.32 -20 9 C-39.78499611 19.49542683 -39.78499611 19.49542683 -45.3828125 18.6328125 C-46.18332031 18.31957031 -46.18332031 18.31957031 -47 18 C-47 16.35 -47 14.7 -47 13 C-48.32 12.67 -49.64 12.34 -51 12 C-49.02 12 -47.04 12 -45 12 C-44.67 12.66 -44.34 13.32 -44 14 C-38.41499433 13.80101292 -38.41499433 13.80101292 -34 11 C-32.1953125 10.40234375 -32.1953125 10.40234375 -30.125 9.9375 C-29.10792969 9.70353516 -29.10792969 9.70353516 -28.0703125 9.46484375 C-27.38710937 9.31144531 -26.70390625 9.15804687 -26 9 C-24.66585599 8.66992631 -23.33227237 8.33754883 -22 8 C-22 7.34 -22 6.68 -22 6 C-16.39045969 3.13000263 -11.02357885 2.24705177 -4.79296875 1.4296875 C-2.05290523 1.15395644 -2.05290523 1.15395644 0 0 Z " fill="#845427" transform="translate(128,28)"/>
<path d="M0 0 C0.98291016 0.00644531 1.96582031 0.01289063 2.97851562 0.01953125 C4.00267578 0.03628906 5.02683594 0.05304688 6.08203125 0.0703125 C7.11779297 0.07933594 8.15355469 0.08835938 9.22070312 0.09765625 C11.7788781 0.1212339 14.33658873 0.1541422 16.89453125 0.1953125 C16.89453125 0.5253125 16.89453125 0.8553125 16.89453125 1.1953125 C16.26546875 1.23269531 15.63640625 1.27007812 14.98828125 1.30859375 C10.70489467 1.6375888 6.87630432 2.02264144 2.89453125 3.6953125 C-5.07099321 7.00748872 -14.43017202 6.40113399 -22.91796875 6.4453125 C-24.43293945 6.47625 -24.43293945 6.47625 -25.97851562 6.5078125 C-35.02890539 6.55560334 -35.02890539 6.55560334 -39.10546875 3.1953125 C-38.11546875 2.8653125 -37.12546875 2.5353125 -36.10546875 2.1953125 C-35.44546875 2.5253125 -34.78546875 2.8553125 -34.10546875 3.1953125 C-22.21987235 3.75193823 -10.91365311 -0.1261694 0 0 Z " fill="#421E07" transform="translate(159.10546875,196.8046875)"/>
<path d="M0 0 C17.06860522 -0.09839994 34.12656822 -0.14866018 51.1875 0.4375 C52.36594482 0.47673584 53.54438965 0.51597168 54.75854492 0.55639648 C60.56291613 0.77698715 66.25099035 1.16467381 72 2 C72 2.33 72 2.66 72 3 C47.90610675 3.25019619 24.03104849 2.83038068 0 1 C0 0.67 0 0.34 0 0 Z " fill="#AC783E" transform="translate(63,190)"/>
<path d="M0 0 C9.68791291 -0.13411454 19.21471743 0.24353343 28.875 1 C30.14730469 1.09539062 31.41960937 1.19078125 32.73046875 1.2890625 C35.82069542 1.52141037 38.91048215 1.75844069 42 2 C42 2.33 42 2.66 42 3 C38.7 3 35.4 3 32 3 C32 3.66 32 4.32 32 5 C35.3 5.33 38.6 5.66 42 6 C42 6.66 42 7.32 42 8 C34.35192717 7.24116111 26.77386252 6.10532891 19.1862793 4.89819336 C17.75847072 4.67250802 16.33006647 4.45056251 14.90112305 4.23217773 C12.81946944 3.914019 10.73974759 3.58524466 8.66015625 3.25390625 C7.42918213 3.06127197 6.19820801 2.8686377 4.92993164 2.67016602 C2 2 2 2 0 0 Z " fill="#633A15" transform="translate(35,189)"/>
<path d="M0 0 C0.33 0 0.66 0 1 0 C1.2700558 7.8316181 0.23107719 15.27279225 -1 23 C-0.01 23.33 0.98 23.66 2 24 C1.34 24 0.68 24 0 24 C-0.04898438 24.56203125 -0.09796875 25.1240625 -0.1484375 25.703125 C-1.01786301 35.4766669 -2.01443862 45.23763435 -3 55 C-2.01 55.33 -1.02 55.66 0 56 C-1.65 56 -3.3 56 -5 56 C-5.33 56.66 -5.66 57.32 -6 58 C-6.1122548 51.46022568 -5.70735697 45.16326835 -4.94140625 38.671875 C-4.8327977 37.71984192 -4.72418915 36.76780884 -4.61228943 35.78692627 C-4.38348105 33.78996749 -4.15225138 31.79328477 -3.91870117 29.796875 C-3.56196315 26.74540791 -3.21297867 23.69312881 -2.86523438 20.640625 C-2.64107609 18.69265637 -2.41648191 16.74473784 -2.19140625 14.796875 C-2.08719864 13.88846863 -1.98299103 12.98006226 -1.87562561 12.04412842 C-1.39920265 7.98859742 -0.89918361 3.98880533 0 0 Z " fill="#8B5B2B" transform="translate(221,68)"/>
<path d="M0 0 C5.62229811 0.97929373 10.81214413 2.20135853 16.10546875 4.3359375 C19.04002629 5.3645453 21.91409503 5.67855157 25 6 C25.33 6.99 25.66 7.98 26 9 C28.31 9.33 30.62 9.66 33 10 C32.67 10.99 32.34 11.98 32 13 C32 12.34 32 11.68 32 11 C30.94941406 10.90203125 29.89882812 10.8040625 28.81640625 10.703125 C10.85311328 8.85311328 10.85311328 8.85311328 6 4 C6.33 6.31 6.66 8.62 7 11 C3.45756544 9.13556076 1.29293437 7.87880311 0 4 C0 2.68 0 1.36 0 0 Z " fill="#A60304" transform="translate(100,212)"/>
<path d="M0 0 C0.66 0.33 1.32 0.66 2 1 C1.34 2.32 0.68 3.64 0 5 C-0.66 5 -1.32 5 -2 5 C-1.95359375 5.59167969 -1.9071875 6.18335938 -1.859375 6.79296875 C-1.55878428 13.37375834 -1.55878428 13.37375834 -3.9375 16.75 C-4.618125 17.4925 -5.29875 18.235 -6 19 C-6.78946609 21.68507329 -6.78946609 21.68507329 -7 24 C-9.64 24 -12.28 24 -15 24 C-4.93032787 4.93032787 -4.93032787 4.93032787 0 0 Z " fill="#536A7E" transform="translate(87,215)"/>
<path d="M0 0 C21.69121834 -1.02614934 21.69121834 -1.02614934 30 5 C30.99 5.66 31.98 6.32 33 7 C28.11001676 8.62999441 23.98731493 5.48468187 19.5625 3.3125 C18.716875 2.879375 17.87125 2.44625 17 2 C17.02320313 2.58265625 17.04640625 3.1653125 17.0703125 3.765625 C17.20048346 9.67910581 16.57448633 15.13791518 15.51171875 20.94921875 C14.73015386 25.60877736 14.35223015 30.291239 14 35 C13.67 35 13.34 35 13 35 C12.70243294 9.24391765 12.70243294 9.24391765 16 1 C10.72 1 5.44 1 0 1 C0 0.67 0 0.34 0 0 Z " fill="#BF894C" transform="translate(211,4)"/>
<path d="M0 0 C2.97 0 5.94 0 9 0 C9 1.65 9 3.3 9 5 C12.84761867 4.61523813 15.71985166 4.14282072 19.1875 2.375 C22.30564964 0.85057129 22.86963495 0.99452943 26 2 C16.00387466 10.90144879 16.00387466 10.90144879 10.1875 11.1875 C9.135625 11.125625 8.08375 11.06375 7 11 C5.68373308 7.38026598 5 4.90432869 5 1 C3.35 1 1.7 1 0 1 C0 0.67 0 0.34 0 0 Z " fill="#AE7C48" transform="translate(72,41)"/>
<path d="M0 0 C0.66 0 1.32 0 2 0 C1.88900857 3.66722902 1.7586501 7.33353236 1.625 11 C1.57859375 12.54494141 1.57859375 12.54494141 1.53125 14.12109375 C1.30363559 20.07700423 0.56715562 25.26170775 -1 31 C-1.44683806 33.71957141 -1.76107015 36.44842008 -2.0625 39.1875 C-2.5529627 43.49627561 -3.06948036 47.75913615 -4 52 C-4.66 52 -5.32 52 -6 52 C-5.47046827 46.84419542 -4.93725291 41.68878867 -4.40087891 36.53369141 C-4.21957092 34.7863959 -4.03920399 33.03900243 -3.85986328 31.29150391 C-2.78482055 20.82335035 -1.59678115 10.40379213 0 0 Z " fill="#CABEA5" transform="translate(17,27)"/>
<path d="M0 0 C2.92827263 1.54547722 4.80042768 2.72202427 6.75 5.4375 C9.495917 8.56479436 12.09167585 9.55430655 15.890625 11.09375 C18.22856912 12.09820007 20.00630144 13.43352256 22 15 C23.64797236 15.71162443 25.31165408 16.39031953 27 17 C27 17.33 27 17.66 27 18 C22.71 18 18.42 18 14 18 C14 17.34 14 16.68 14 16 C13.01 16 12.02 16 11 16 C11 14.35 11 12.7 11 11 C9.68 10.67 8.36 10.34 7 10 C7 9.34 7 8.68 7 8 C6.38125 7.690625 5.7625 7.38125 5.125 7.0625 C3.75 6.375 2.375 5.6875 1 5 C0.375 2.4375 0.375 2.4375 0 0 Z " fill="#2E384B" transform="translate(103,221)"/>
<path d="M0 0 C0.66 0 1.32 0 2 0 C2.3285038 12.4022819 2.4468388 23.97709801 -1 36 C-1.33 35.34 -1.66 34.68 -2 34 C-2.66 33.67 -3.32 33.34 -4 33 C-2.68 22.11 -1.36 11.22 0 0 Z " fill="#D2BF9E" transform="translate(11,79)"/>
<path d="M0 0 C1.17691406 0.26425781 2.35382813 0.52851563 3.56640625 0.80078125 C4.51386719 1.09339844 5.46132812 1.38601562 6.4375 1.6875 C6.7675 2.3475 7.0975 3.0075 7.4375 3.6875 C6.7775 3.6875 6.1175 3.6875 5.4375 3.6875 C5.4375 4.3475 5.4375 5.0075 5.4375 5.6875 C2.00806481 6.87521723 0.05965325 6.48976223 -3.3125 5.25 C-4.11171875 4.96253906 -4.9109375 4.67507812 -5.734375 4.37890625 C-6.63929687 4.03666016 -6.63929687 4.03666016 -7.5625 3.6875 C-7.5625 5.0075 -7.5625 6.3275 -7.5625 7.6875 C-8.5525 7.6875 -9.5425 7.6875 -10.5625 7.6875 C-11.2225 8.6775 -11.8825 9.6675 -12.5625 10.6875 C-12.5625 7.7175 -12.5625 4.7475 -12.5625 1.6875 C-11.2425 2.0175 -9.9225 2.3475 -8.5625 2.6875 C-8.5625 1.6975 -8.5625 0.7075 -8.5625 -0.3125 C-5.50822078 -1.83963961 -3.2717749 -0.7577876 0 0 Z " fill="#8A0304" transform="translate(111.5625,205.3125)"/>
<path d="M0 0 C0.66 0.33 1.32 0.66 2 1 C2.23809524 25.52380952 2.23809524 25.52380952 0 30 C1.98 30 3.96 30 6 30 C6 30.66 6 31.32 6 32 C3.125 32.125 3.125 32.125 0 32 C-2 30 -2 30 -2.265625 27.55859375 C-2.21906791 18.25881552 -1.23433381 9.20239942 0 0 Z " fill="#D2BEA3" transform="translate(2,156)"/>
<path d="M0 0 C0.33 0 0.66 0 1 0 C1.162421 4.87262986 1.02464037 9.33160363 0.125 14.125 C-0.97339255 20.16615904 -1.50353569 26.19916505 -2 32.3125 C-2.72802357 41.25979362 -3.68132881 50.12001211 -5 59 C-5.33 59 -5.66 59 -6 59 C-6.02701408 56.89590361 -6.04640223 54.79170822 -6.0625 52.6875 C-6.07410156 51.51574219 -6.08570313 50.34398437 -6.09765625 49.13671875 C-6 46 -6 46 -5 43 C-4.8410937 40.03963455 -4.72203446 37.08737183 -4.625 34.125 C-4.314289 26.47162305 -3.59909621 18.95547313 -2.5 11.375 C-2.30398193 10.01592529 -2.30398193 10.01592529 -2.10400391 8.62939453 C-1.14325642 2.28651284 -1.14325642 2.28651284 0 0 Z " fill="#9E774D" transform="translate(296,59)"/>
<path d="M0 0 C0.99 0.33 1.98 0.66 3 1 C2.13375 2.299375 2.13375 2.299375 1.25 3.625 C0.88777344 4.1715625 0.52554688 4.718125 0.15234375 5.28125 C-0.93979791 6.91020705 -2.06283018 8.51832882 -3.1875 10.125 C-5.07168481 12.73299015 -5.07168481 12.73299015 -5.3984375 15.0078125 C-6.17553357 17.58131246 -7.23344434 18.26535544 -9.4375 19.75 C-10.05496094 20.17796875 -10.67242187 20.6059375 -11.30859375 21.046875 C-13 22 -13 22 -15 22 C-15.33 22.99 -15.66 23.98 -16 25 C-16.33 24.34 -16.66 23.68 -17 23 C-13.43099161 15.81206701 -8.29324707 9.79369393 -2.8203125 3.99609375 C-0.95023631 2.12734212 -0.95023631 2.12734212 0 0 Z " fill="#664D3C" transform="translate(121,3)"/>
<path d="M0 0 C20.12019198 -0.24552942 39.94460831 0.1164413 60 2 C60 2.33 60 2.66 60 3 C39.88865501 3.30947856 20.04860824 2.47635658 0 1 C0 0.67 0 0.34 0 0 Z " fill="#9E6B33" transform="translate(119,193)"/>
<path d="M0 0 C0.66 0.33 1.32 0.66 2 1 C0.9275 1.721875 -0.145 2.44375 -1.25 3.1875 C-3.68186262 4.90783568 -5.19287766 6.24548066 -7.0625 8.625 C-9.39694675 11.48657989 -11.61285947 12.60096369 -15 14 C-15.66 14 -16.32 14 -17 14 C-17.33 14.99 -17.66 15.98 -18 17 C-19.65 17 -21.3 17 -23 17 C-19.375 11.125 -19.375 11.125 -16 10 C-15.67 9.34 -15.34 8.68 -15 8 C-12.6871582 6.58397441 -10.38994002 5.27250623 -8 4 C-7.28328125 3.60941406 -6.5665625 3.21882812 -5.828125 2.81640625 C-5.12171875 2.44386719 -4.4153125 2.07132813 -3.6875 1.6875 C-3.03136719 1.34074219 -2.37523438 0.99398438 -1.69921875 0.63671875 C-0.85810547 0.32154297 -0.85810547 0.32154297 0 0 Z " fill="#A1846F" transform="translate(49,11)"/>
<path d="M0 0 C4.72836808 0.55377284 8.17998378 1.90293678 12.375 4.125 C20.08842878 8.13357845 28.00936515 11.58581966 36 15 C35.67 15.66 35.34 16.32 35 17 C32.17862278 15.8746797 29.3611864 14.7405723 26.546875 13.59765625 C19.75669662 10.84745178 12.99093108 8.20766245 6 6 C6 5.34 6 4.68 6 4 C4.02 3.34 2.04 2.68 0 2 C0 1.34 0 0.68 0 0 Z " fill="#C6AB93" transform="translate(244,12)"/>
<path d="M0 0 C0 0.66 0 1.32 0 2 C-1.65234375 3.2265625 -1.65234375 3.2265625 -3.9375 4.625 C-12.18339202 9.9582928 -18.67471025 16.55460686 -25 24 C-27.3125 26.5 -27.3125 26.5 -29 28 C-29.66 28 -30.32 28 -31 28 C-31.33 28.99 -31.66 29.98 -32 31 C-32.66 31 -33.32 31 -34 31 C-34.28875 31.639375 -34.5775 32.27875 -34.875 32.9375 C-36 35 -36 35 -38 36 C-38 34.68 -38 33.36 -38 32 C-37.01 32 -36.02 32 -35 32 C-35 31.34 -35 30.68 -35 30 C-33.56640625 28.625 -33.56640625 28.625 -31.5625 27 C-26.31116975 22.54574666 -20.11443825 17.2288765 -17 11 C-16.01 11 -15.02 11 -14 11 C-13.6596875 10.12601563 -13.6596875 10.12601563 -13.3125 9.234375 C-11.6404838 6.38796646 -9.72023189 5.1003903 -7 3.25 C-6.113125 2.63640625 -5.22625 2.0228125 -4.3125 1.390625 C-2 0 -2 0 0 0 Z " fill="#563C2B" transform="translate(105,5)"/>
<path d="M0 0 C6.6 0 13.2 0 20 0 C19.67 1.65 19.34 3.3 19 5 C12.73 4.67 6.46 4.34 0 4 C0 2.68 0 1.36 0 0 Z " fill="#8B7348" transform="translate(175,175)"/>
<path d="M0 0 C0.85049423 0.00222061 1.70098846 0.00444122 2.57725525 0.00672913 C4.01863609 0.00684242 4.01863609 0.00684242 5.48913574 0.00695801 C7.05630592 0.01469994 7.05630592 0.01469994 8.65513611 0.02259827 C9.71913132 0.02401321 10.78312653 0.02542816 11.87936401 0.02688599 C15.29293069 0.03250388 18.70643286 0.04505941 22.11997986 0.05775452 C24.42792162 0.06276721 26.73586441 0.06733052 29.04380798 0.07142639 C34.71505412 0.08247912 40.38626238 0.09923465 46.05747986 0.12025452 C46.05747986 0.45025452 46.05747986 0.78025452 46.05747986 1.12025452 C31.20747986 1.45025452 16.35747986 1.78025452 1.05747986 2.12025452 C1.05747986 3.11025452 1.05747986 4.10025452 1.05747986 5.12025452 C-1.44252014 6.80775452 -1.44252014 6.80775452 -3.94252014 8.12025452 C-2.9321355 0.18151809 -2.9321355 0.18151809 0 0 Z " fill="#C29D75" transform="translate(153.94252014160156,3.8797454833984375)"/>
<path d="M0 0 C0.66 0.33 1.32 0.66 2 1 C1.0479279 2.00596297 0.08812654 3.00461563 -0.875 4 C-1.40867188 4.556875 -1.94234375 5.11375 -2.4921875 5.6875 C-4 7 -4 7 -6 7 C-6 7.99 -6 8.98 -6 10 C-10.98325005 12.49162503 -15.08040433 13.34396474 -20.62109375 13.75 C-23.59631321 14.06266674 -26.22460308 14.90444858 -29 16 C-27.26306834 12.52613668 -23.51667794 11.3464204 -20 10 C-18.1128125 9.87625 -18.1128125 9.87625 -16.1875 9.75 C-9.99694534 9.30605584 -4.26113863 4.26113863 0 0 Z " fill="#633815" transform="translate(136,18)"/>
<path d="M0 0 C8.90923353 -0.14057962 17.74188385 0.41213222 26.625 1 C28.12107489 1.0966465 29.61716856 1.19300285 31.11328125 1.2890625 C34.74240986 1.52269981 38.37126931 1.76025255 42 2 C42 2.33 42 2.66 42 3 C40.80761719 3.04898438 39.61523438 3.09796875 38.38671875 3.1484375 C36.82028932 3.22347604 35.25388421 3.2990234 33.6875 3.375 C32.90181641 3.4059375 32.11613281 3.436875 31.30664062 3.46875 C30.1706543 3.52675781 30.1706543 3.52675781 29.01171875 3.5859375 C28.31522217 3.6173584 27.61872559 3.6487793 26.90112305 3.68115234 C24.67467261 3.92118253 24.67467261 3.92118253 22 6 C18.8125 5.625 18.8125 5.625 16 5 C16.33 4.34 16.66 3.68 17 3 C11.39 2.34 5.78 1.68 0 1 C0 0.67 0 0.34 0 0 Z " fill="#6D3F14" transform="translate(109,193)"/>
<path d="M0 0 C-1.39852912 2.79705825 -3.13651858 2.90914993 -6 4 C-6.99 4.66 -7.98 5.32 -9 6 C-11.91796875 6.1953125 -11.91796875 6.1953125 -15.1875 6.125 C-16.27417969 6.10695313 -17.36085938 6.08890625 -18.48046875 6.0703125 C-19.72763672 6.03550781 -19.72763672 6.03550781 -21 6 C-21.33 4.68 -21.66 3.36 -22 2 C-20.783125 2.04125 -19.56625 2.0825 -18.3125 2.125 C-15.62144773 2.13440927 -14.08396424 2.03444687 -11.5625 1 C-7.7541838 -0.48617217 -4.04099091 -0.15847023 0 0 Z " fill="#CB9860" transform="translate(62,40)"/>
<path d="M0 0 C5.57759132 -0.38029032 10.26099314 0.69993163 15.64453125 2.1328125 C21.38596156 3.61662802 27.19588637 4.78937867 33 6 C33 6.33 33 6.66 33 7 C22.77 6.34 12.54 5.68 2 5 C2 4.67 2 4.34 2 4 C3.98 3.67 5.96 3.34 8 3 C5.36 2.34 2.72 1.68 0 1 C0 0.67 0 0.34 0 0 Z " fill="#624125" transform="translate(240,205)"/>
<path d="M0 0 C0 1.65 0 3.3 0 5 C-4.94790177 5.0493651 -9.89566083 5.08570269 -14.84375 5.10986328 C-16.52769466 5.11993317 -18.21162179 5.13358988 -19.89550781 5.15087891 C-22.31319501 5.17508426 -24.73065143 5.18647296 -27.1484375 5.1953125 C-27.9036972 5.20563507 -28.65895691 5.21595764 -29.43710327 5.22659302 C-31.2929398 5.22699318 -33.1481928 5.12222716 -35 5 C-35.66 4.34 -36.32 3.68 -37 3 C-36.00371582 3.02356567 -36.00371582 3.02356567 -34.98730469 3.04760742 C-23.10135059 3.29188171 -11.27016205 0 0 0 Z " fill="#182333" transform="translate(165,234)"/>
<path d="M0 0 C0.33 0 0.66 0 1 0 C-0.29211747 24.58423493 -0.29211747 24.58423493 -3 30 C-4.98 30 -6.96 30 -9 30 C-9.33 29.34 -9.66 28.68 -10 28 C-8.02 28 -6.04 28 -4 28 C-3.95101562 27.12859375 -3.90203125 26.2571875 -3.8515625 25.359375 C-2.58415842 5.16831683 -2.58415842 5.16831683 0 0 Z " fill="#CD9758" transform="translate(208,167)"/>
<path d="M0 0 C0.33 0 0.66 0 1 0 C1.05390357 2.93774463 1.0936255 5.87450232 1.125 8.8125 C1.14175781 9.64587891 1.15851563 10.47925781 1.17578125 11.33789062 C1.18222656 12.14033203 1.18867188 12.94277344 1.1953125 13.76953125 C1.20578613 14.50792236 1.21625977 15.24631348 1.22705078 16.00708008 C1 18 1 18 -1 21 C-3.1640625 21.29296875 -3.1640625 21.29296875 -5.625 21.1875 C-6.85089844 21.14689453 -6.85089844 21.14689453 -8.1015625 21.10546875 C-8.72804688 21.07066406 -9.35453125 21.03585938 -10 21 C-7.702779 19.25728062 -5.40133271 17.60088848 -3 16 C-2.41651248 13.3443272 -2.41651248 13.3443272 -2.3125 10.375 C-2.24675781 9.37210938 -2.18101562 8.36921875 -2.11328125 7.3359375 C-2.07589844 6.56507813 -2.03851563 5.79421875 -2 5 C-1.34 5 -0.68 5 0 5 C0 3.35 0 1.7 0 0 Z " fill="#AC8B66" transform="translate(281,193)"/>
<path d="M0 0 C5.94 0 11.88 0 18 0 C18 1.32 18 2.64 18 4 C11.8894576 4.11269443 6.04829486 3.89604368 0 3 C0 2.01 0 1.02 0 0 Z " fill="#927F53" transform="translate(13,166)"/>
<path d="M0 0 C0.33 0 0.66 0 1 0 C1.02911003 3.89581756 1.04683587 7.791607 1.0625 11.6875 C1.07087891 12.79029297 1.07925781 13.89308594 1.08789062 15.02929688 C1.09111328 16.09599609 1.09433594 17.16269531 1.09765625 18.26171875 C1.10289307 19.24100342 1.10812988 20.22028809 1.11352539 21.22924805 C1.00287244 23.92989399 0.55923861 26.36178705 0 29 C-0.03772913 30.9996441 -0.04649906 33.00054061 0 35 C-0.99 35.495 -0.99 35.495 -2 36 C-2.02903577 32.89585298 -2.0468107 29.79174091 -2.0625 26.6875 C-2.07087891 25.80642578 -2.07925781 24.92535156 -2.08789062 24.01757812 C-2.09111328 23.17001953 -2.09433594 22.32246094 -2.09765625 21.44921875 C-2.10289307 20.66893311 -2.10812988 19.88864746 -2.11352539 19.0847168 C-2 17 -2 17 -1 14 C-1.66 13.67 -2.32 13.34 -3 13 C-2.34 12.34 -1.68 11.68 -1 11 C-0.53709779 8.33757179 -0.53709779 8.33757179 -0.375 5.375 C-0.30023437 4.37210938 -0.22546875 3.36921875 -0.1484375 2.3359375 C-0.09945313 1.56507812 -0.05046875 0.79421875 0 0 Z " fill="#ECD6AD" transform="translate(20,13)"/>
<path d="M0 0 C0.33 0 0.66 0 1 0 C1.31366039 10.83870913 0.36326269 21.2643063 -1 32 C-3.43890703 28.34163946 -3.12347556 27.05479719 -2.75 22.75 C-2.64300781 21.51507813 -2.53601563 20.28015625 -2.42578125 19.0078125 C-1.77875087 12.65085713 -0.91225107 6.32375985 0 0 Z " fill="#C2B19B" transform="translate(6,124)"/>
<path d="M0 0 C5.61 0 11.22 0 17 0 C16.01 0.495 16.01 0.495 15 1 C15 1.66 15 2.32 15 3 C14.03320312 3.03738281 13.06640625 3.07476562 12.0703125 3.11328125 C4.28782671 3.50625826 -2.6303368 4.24287894 -10 7 C-9 5 -9 5 -6.93359375 4.1484375 C-5.69802734 3.76558594 -5.69802734 3.76558594 -4.4375 3.375 C-3.61121094 3.11460938 -2.78492187 2.85421875 -1.93359375 2.5859375 C-1.29550781 2.39257812 -0.65742187 2.19921875 0 2 C0 1.34 0 0.68 0 0 Z " fill="#AA7744" transform="translate(108,35)"/>
<path d="M0 0 C2.125 0.375 2.125 0.375 4 1 C-0.30574394 5.16221914 -5.19747223 6.90111421 -11 8 C-11.66 7.67 -12.32 7.34 -13 7 C-13 5.35 -13 3.7 -13 2 C-14.32 1.67 -15.64 1.34 -17 1 C-15.02 1 -13.04 1 -11 1 C-10.67 1.66 -10.34 2.32 -10 3 C-4.41499433 2.80101292 -4.41499433 2.80101292 0 0 Z " fill="#805125" transform="translate(94,39)"/>
<path d="M0 0 C0.33 0 0.66 0 1 0 C1 3.96 1 7.92 1 12 C1.99 12.33 2.98 12.66 4 13 C4.6875 15.0625 4.6875 15.0625 5 17 C4.01 16.67 3.02 16.34 2 16 C2 15.34 2 14.68 2 14 C1.01 13.67 0.02 13.34 -1 13 C-1 12.34 -1 11.68 -1 11 C-2.65 11 -4.3 11 -6 11 C-4.52307692 6.32307692 -4.52307692 6.32307692 -1.875 4.6875 C-0.946875 4.3471875 -0.946875 4.3471875 0 4 C0 2.68 0 1.36 0 0 Z " fill="#64242B" transform="translate(98,204)"/>
<path d="M0 0 C2.475 0.99 2.475 0.99 5 2 C5 2.66 5 3.32 5 4 C5.9075 4.28875 6.815 4.5775 7.75 4.875 C10.32202908 5.76531776 12.61346766 6.71494413 15 8 C15 8.66 15 9.32 15 10 C19.95 10.33 24.9 10.66 30 11 C30 11.33 30 11.66 30 12 C27.77144426 12.0814222 25.54202345 12.13938079 23.3125 12.1875 C22.07113281 12.22230469 20.82976562 12.25710937 19.55078125 12.29296875 C15.74905076 11.97929462 14.08440583 11.13781232 11 9 C9.2365625 8.3503125 9.2365625 8.3503125 7.4375 7.6875 C3.2376037 5.62573273 2.22308578 4.0015544 0 0 Z " fill="#AF0E14" transform="translate(107,223)"/>
<path d="M0 0 C10.06604235 -0.10849626 19.97112823 0.0232751 30 1 C24.55408843 3.81486991 21.02281872 4.04241093 15 3 C11.99789034 2.91141316 9.00252143 2.93994957 6 3 C6 2.34 6 1.68 6 1 C4.02 1 2.04 1 0 1 C0 0.67 0 0.34 0 0 Z " fill="#B68E62" transform="translate(2,185)"/>
<path d="M0 0 C21.69121834 -1.02614934 21.69121834 -1.02614934 30 5 C30.99 5.66 31.98 6.32 33 7 C28.20558395 8.59813868 24.15436079 5.56382299 19.79296875 3.43359375 C15.74671216 1.70809513 11.91941916 1.45201708 7.5625 1.3125 C6.46518555 1.26125977 6.46518555 1.26125977 5.34570312 1.20898438 C3.56430438 1.12748247 1.78218251 1.06204477 0 1 C0 0.67 0 0.34 0 0 Z " fill="#BCA68D" transform="translate(211,4)"/>
<path d="M0 0 C0.33 0 0.66 0 1 0 C1.17258766 11.50584424 1.17258766 11.50584424 0.5 16.375 C-0.09948415 19.9481376 -0.09948415 19.9481376 0.125 23.375 C0.08375 24.24125 0.0425 25.1075 0 26 C-0.99 26.66 -1.98 27.32 -3 28 C-3.27028548 21.75340227 -2.8350193 15.69128985 -2.0625 9.5 C-1.97564941 8.79359375 -1.88879883 8.0871875 -1.79931641 7.359375 C-1.13137106 2.26274212 -1.13137106 2.26274212 0 0 Z " fill="#EFD7AD" transform="translate(16,56)"/>
<path d="M0 0 C-4.259419 2.2855419 -8.34478811 3.73039676 -13 5 C-13.86625 5.391875 -14.7325 5.78375 -15.625 6.1875 C-18.47515345 7.1625525 -20.14114137 6.81681675 -23 6 C-23 5.34 -23 4.68 -23 4 C-23.99 3.67 -24.98 3.34 -26 3 C-24.1128125 3.0928125 -24.1128125 3.0928125 -22.1875 3.1875 C-15.06845244 3.21006433 -6.42901765 -2.14300588 0 0 Z " fill="#59320F" transform="translate(106,36)"/>
<path d="M0 0 C0 3 0 3 -2.125 5.5625 C-5.15433348 8.13084795 -7.20197686 8.99236121 -11 10 C-12.03125 10.391875 -13.0625 10.78375 -14.125 11.1875 C-17.11278346 12.03187359 -18.13752465 11.86611379 -21 11 C-19.90300781 10.45730469 -18.80601562 9.91460937 -17.67578125 9.35546875 C-16.22130061 8.6329203 -14.7668765 7.91025804 -13.3125 7.1875 C-12.59126953 6.83107422 -11.87003906 6.47464844 -11.12695312 6.10742188 C-7.31859523 4.21193781 -3.61126143 2.25792874 0 0 Z " fill="#170507" transform="translate(181,219)"/>
<path d="M0 0 C0.33 0 0.66 0 1 0 C1.02696365 1.79158489 1.04637917 3.58328473 1.0625 5.375 C1.07410156 6.37273437 1.08570313 7.37046875 1.09765625 8.3984375 C1 11 1 11 0 13 C-0.22950319 15.204364 -0.41075933 17.41392173 -0.5625 19.625 C-0.64628906 20.81351563 -0.73007813 22.00203125 -0.81640625 23.2265625 C-0.87699219 24.14179688 -0.93757812 25.05703125 -1 26 C-1.33 26 -1.66 26 -2 26 C-2.67453101 18.31516461 -3.1567564 10.71589817 -3 3 C-2.34 3 -1.68 3 -1 3 C-0.67 2.01 -0.34 1.02 0 0 Z " fill="#E3CBA1" transform="translate(10,110)"/>
<path d="M0 0 C2.09350689 3.4019487 2.17942163 6.05272412 2 10 C3.65 10.33 5.3 10.66 7 11 C2.8204355 13.78637633 0.85331323 12.79562512 -4 12 C-3.33501617 7.61110675 -1.81242323 4.0188515 0 0 Z " fill="#603F21" transform="translate(40,30)"/>
<path d="M0 0 C2.92827263 1.54547722 4.80042768 2.72202427 6.75 5.4375 C9.50460119 8.57468469 12.1423179 9.60871214 15.9765625 11.10546875 C18 12 18 12 20 14 C15.15340923 13.40895235 11.39251833 12.02055843 7 10 C7 9.34 7 8.68 7 8 C6.38125 7.690625 5.7625 7.38125 5.125 7.0625 C3.75 6.375 2.375 5.6875 1 5 C0.375 2.4375 0.375 2.4375 0 0 Z " fill="#5A2734" transform="translate(103,221)"/>
<path d="M0 0 C0 0.66 0 1.32 0 2 C-7.78508549 6.2632611 -15.00810529 6.18208553 -23.6875 6.1875 C-24.73228516 6.19974609 -25.77707031 6.21199219 -26.85351562 6.22460938 C-28.35495117 6.22750977 -28.35495117 6.22750977 -29.88671875 6.23046875 C-30.79639404 6.23457764 -31.70606934 6.23868652 -32.64331055 6.24291992 C-35 6 -35 6 -38 4 C-37.2793335 4.00523682 -36.55866699 4.01047363 -35.81616211 4.01586914 C-32.52328375 4.03676875 -29.23041941 4.04970131 -25.9375 4.0625 C-24.80376953 4.07087891 -23.67003906 4.07925781 -22.50195312 4.08789062 C-16.89121133 4.10424847 -11.52350669 4.01812097 -6 3 C-6 2.34 -6 1.68 -6 1 C-3.92446352 0.4465236 -2.15634036 0 0 0 Z " fill="#2E070D" transform="translate(160,231)"/>
<path d="M0 0 C0.33 0 0.66 0 1 0 C2.0070238 5.03511899 1.97387813 8.23947038 0 13 C-0.33 11.68 -0.66 10.36 -1 9 C-2.98 9 -4.96 9 -7 9 C-7 8.67 -7 8.34 -7 8 C-5.02 8 -3.04 8 -1 8 C-0.67 5.36 -0.34 2.72 0 0 Z M-16 13 C-11.05 13 -6.1 13 -1 13 C-0.67 13.66 -0.34 14.32 0 15 C-5.28 15 -10.56 15 -16 15 C-16 14.34 -16 13.68 -16 13 Z " fill="#ECCD94" transform="translate(32,157)"/>
<path d="M0 0 C0.66 0 1.32 0 2 0 C2 1.98 2 3.96 2 6 C3.32 6.33 4.64 6.66 6 7 C4.35 7 2.7 7 1 7 C1 6.01 1 5.02 1 4 C-1.06309376 4.11478413 -3.12548354 4.24226198 -5.1875 4.375 C-6.33605469 4.44460937 -7.48460937 4.51421875 -8.66796875 4.5859375 C-11.96112011 4.84644029 -11.96112011 4.84644029 -14.67578125 6.1015625 C-17.30041848 7.11612815 -18.40678426 6.96045028 -21 6 C-14.35144065 3.85046577 -7.95233949 1.79003858 -1 1 C-0.67 0.67 -0.34 0.34 0 0 Z " fill="#AD7E4E" transform="translate(65,36)"/>
<path d="M0 0 C0.99 0.33 1.98 0.66 3 1 C2.34 1 1.68 1 1 1 C0.67 1.99 0.34 2.98 0 4 C-5.94 4.33 -11.88 4.66 -18 5 C-18 5.66 -18 6.32 -18 7 C-21.3 7.66 -24.6 8.32 -28 9 C-22.86068171 3.86068171 -18.18456523 2.85371647 -11.07910156 2.7956543 C-8.05016594 2.82019593 -5.02722318 2.89357419 -2 3 C-2 2.34 -2 1.68 -2 1 C-1.34 0.67 -0.68 0.34 0 0 Z " fill="#C08C54" transform="translate(125,35)"/>
<path d="M0 0 C-6.38824646 4.71642877 -12.78746663 8.669958 -20 12 C-20 11.01 -20 10.02 -20 9 C-19.07316406 8.51789063 -18.14632812 8.03578125 -17.19140625 7.5390625 C-15.98161257 6.9013418 -14.77198574 6.26330452 -13.5625 5.625 C-12.95083984 5.30789062 -12.33917969 4.99078125 -11.70898438 4.6640625 C-8.24761656 2.97695701 -8.24761656 2.97695701 -6 0 C-2.49056604 -1.24528302 -2.49056604 -1.24528302 0 0 Z " fill="#480808" transform="translate(186,216)"/>
<path d="M0 0 C0.6875 2.8125 0.6875 2.8125 1 6 C-0.4375 7.875 -0.4375 7.875 -2 9 C-2 6.36 -2 3.72 -2 1 C-8.27 1 -14.54 1 -21 1 C-21.33 1.99 -21.66 2.98 -22 4 C-22 2.68 -22 1.36 -22 0 C-14.48905184 -0.8388516 -7.49175465 -1.0773541 0 0 Z " fill="#D4AE76" transform="translate(199,153)"/>
<path d="M0 0 C1.32 0 2.64 0 4 0 C4.98248524 4.0527516 5.08159574 7.83861737 5 12 C8.63 12.33 12.26 12.66 16 13 C11.01222852 15.49388574 9.33016752 14.88836125 4 14 C3.67 13.01 3.34 12.02 3 11 C2.34 10.67 1.68 10.34 1 10 C1.33 9.67 1.66 9.34 2 9 C2.07148199 7.64756083 2.08399454 6.29165633 2.0625 4.9375 C2.041875 3.638125 2.02125 2.33875 2 1 C1.34 0.67 0.68 0.34 0 0 Z " fill="#DEAB73" transform="translate(71,42)"/>
<path d="M0 0 C0 0.99 0 1.98 0 3 C-1.54950268 4.54950268 -3.09990594 4.21655193 -5.25390625 4.31640625 C-6.10791016 4.35830078 -6.96191406 4.40019531 -7.84179688 4.44335938 C-8.73962891 4.48267578 -9.63746094 4.52199219 -10.5625 4.5625 C-11.46419922 4.60568359 -12.36589844 4.64886719 -13.29492188 4.69335938 C-15.52978485 4.79978142 -17.76476308 4.90179988 -20 5 C-20.33 4.34 -20.66 3.68 -21 3 C-16.45250925 1.48416975 -11.74222753 1.60443651 -6.984375 1.39453125 C-3.17936028 1.56354441 -3.17936028 1.56354441 0 0 Z " fill="#D19C60" transform="translate(128,37)"/>
<path d="M0 0 C2.31 0 4.62 0 7 0 C5.58740553 7.06297233 3.10910815 11.39743335 -2.28125 16.03125 C-2.8484375 16.3509375 -3.415625 16.670625 -4 17 C-4.99 16.67 -5.98 16.34 -7 16 C-6.20335938 15.38125 -6.20335938 15.38125 -5.390625 14.75 C-0.3037742 10.59140665 2.45022677 7.05571141 5 1 C3.35 1.66 1.7 2.32 0 3 C0 2.01 0 1.02 0 0 Z " fill="#A48E86" transform="translate(95,197)"/>
<path d="M0 0 C0.66 0 1.32 0 2 0 C2 1.65 2 3.3 2 5 C3.093125 4.835 4.18625 4.67 5.3125 4.5 C9 4 9 4 12 4 C7.8315565 8.90405117 7.8315565 8.90405117 3.75 9.375 C1 9 1 9 0 8 C-0.14115161 5.32941149 -0.04247107 2.67567762 0 0 Z " fill="#9E6B38" transform="translate(79,41)"/>
<path d="M0 0 C14.78132118 -0.55353075 14.78132118 -0.55353075 21 3 C21 3.33 21 3.66 21 4 C14.57799871 4.29190915 8.24584256 3.53539681 2 2 C1.34 1.34 0.68 0.68 0 0 Z " fill="#734E26" transform="translate(35,189)"/>
<path d="M0 0 C1.29550781 0.00644531 2.59101562 0.01289063 3.92578125 0.01953125 C7.27219047 0.16895555 10.40359585 0.55108447 13.6875 1.1875 C13.6875 1.5175 13.6875 1.8475 13.6875 2.1875 C10.6253174 2.38283059 7.56303679 2.56903284 4.5 2.75 C3.20352539 2.83411133 3.20352539 2.83411133 1.88085938 2.91992188 C-2.35999079 3.1636489 -6.17047819 3.34520796 -10.3125 2.1875 C-6.55057488 -0.32045008 -4.48362569 -0.04878327 0 0 Z " fill="#9E6F39" transform="translate(35.3125,186.8125)"/>
<path d="M0 0 C1.32 0.33 2.64 0.66 4 1 C2.8004855 4.59854349 1.72074777 5.18616815 -1.375 7.25 C-2.16648437 7.79140625 -2.95796875 8.3328125 -3.7734375 8.890625 C-6 10 -6 10 -9 9 C-6.56427537 5.69437371 -4.74111712 3.6770525 -1 2 C-0.67 1.34 -0.34 0.68 0 0 Z " fill="#826857" transform="translate(70,1)"/>
<path d="M0 0 C3.12915801 2.6862618 4.7642676 5.95391929 6.6875 9.5625 C7.62142578 11.29693359 7.62142578 11.29693359 8.57421875 13.06640625 C10 16 10 16 10 18 C8.68 18 7.36 18 6 18 C4 12 2 6 0 0 Z " fill="#7E7D7F" transform="translate(216,221)"/>
<path d="M0 0 C0.99 0.33 1.98 0.66 3 1 C0.6875 3.5 0.6875 3.5 -2 6 C-2.99 6 -3.98 6 -5 6 C-5 5.34 -5 4.68 -5 4 C-2.6875 1.8125 -2.6875 1.8125 0 0 Z M-7 6 C-6.34 6.33 -5.68 6.66 -5 7 C-7.17329365 9.27898575 -9.32583725 11.32219519 -12 13 C-15.9375 12.875 -15.9375 12.875 -19 12 C-19 11.67 -19 11.34 -19 11 C-17.7625 10.9175 -16.525 10.835 -15.25 10.75 C-12.01117036 10.36524541 -11.12092117 10.09975997 -8.5 7.9375 C-8.005 7.298125 -7.51 6.65875 -7 6 Z " fill="#D39D62" transform="translate(99,43)"/>
<path d="M0 0 C0.33 0.66 0.66 1.32 1 2 C-6.11389522 10.81548975 -6.11389522 10.81548975 -11 12 C-11 11.01 -11 10.02 -11 9 C-8.59375 6.73828125 -8.59375 6.73828125 -5.5 4.3125 C-4.4790625 3.50425781 -3.458125 2.69601563 -2.40625 1.86328125 C-1.6121875 1.24839844 -0.818125 0.63351563 0 0 Z " fill="#845528" transform="translate(141,16)"/>
<path d="M0 0 C0.33 0 0.66 0 1 0 C1.2144997 8.27015524 1.07422976 15.96235969 -1 24 C-1.66 24 -2.32 24 -3 24 C-2.01 16.08 -1.02 8.16 0 0 Z " fill="#BAAB96" transform="translate(14,55)"/>
<path d="M0 0 C0.66 0.33 1.32 0.66 2 1 C-5.19032968 8.3241922 -5.19032968 8.3241922 -10.1875 9 C-13.34768842 9 -15.97143951 8.85178264 -19 8 C-18.67 7.34 -18.34 6.68 -18 6 C-17.3709375 6.06960937 -16.741875 6.13921875 -16.09375 6.2109375 C-9.61163627 6.62095072 -6.33812055 5.52977881 -1.3984375 1.3125 C-0.93695313 0.879375 -0.47546875 0.44625 0 0 Z " fill="#9B6835" transform="translate(131,27)"/>
<path d="M0 0 C0.5775 0.226875 1.155 0.45375 1.75 0.6875 C-0.97555055 3.09239755 -3.01667334 4.61122013 -6.5 5.75 C-7.4075 6.059375 -8.315 6.36875 -9.25 6.6875 C-9.58 7.6775 -9.91 8.6675 -10.25 9.6875 C-11.24 9.3575 -12.23 9.0275 -13.25 8.6875 C-11.09336733 5.45255099 -9.56096016 4.57947723 -6.25 2.6875 C-5.569375 2.11 -4.88875 1.5325 -4.1875 0.9375 C-2.25 -0.3125 -2.25 -0.3125 0 0 Z " fill="#957664" transform="translate(41.25,18.3125)"/>
<path d="M0 0 C4.29 0.99 8.58 1.98 13 3 C13 3.33 13 3.66 13 4 C-0.6332574 4.18451025 -0.6332574 4.18451025 -7 3 C-7 2.67 -7 2.34 -7 2 C-3.535 1.505 -3.535 1.505 0 1 C0 0.67 0 0.34 0 0 Z " fill="#46240C" transform="translate(238,205)"/>
<path d="M0 0 C4.29 0.33 8.58 0.66 13 1 C12.34 2.32 11.68 3.64 11 5 C8.69 5 6.38 5 4 5 C4 3.68 4 2.36 4 1 C2.68 0.67 1.36 0.34 0 0 Z " fill="#784B21" transform="translate(91,192)"/>
<path d="M0 0 C0.33 0.66 0.66 1.32 1 2 C1.86625 1.67 2.7325 1.34 3.625 1 C6.95718275 0.01268659 9.55159538 -0.16420974 13 0 C12 2 12 2 9.5 3.125 C5.2443204 4.1889199 1.35855223 4.17434209 -3 4 C-2.34 3.67 -1.68 3.34 -1 3 C-0.67 2.01 -0.34 1.02 0 0 Z " fill="#502B0C" transform="translate(43,37)"/>
<path d="M0 0 C1.98 0.66 3.96 1.32 6 2 C6 5 6 8 6 11 C2.99229937 8.99486625 1.24691165 7.42900705 0 4 C0 2.68 0 1.36 0 0 Z " fill="#BD0B12" transform="translate(100,212)"/>
<path d="M0 0 C2.97 0 5.94 0 9 0 C8.01 0.495 8.01 0.495 7 1 C7 1.66 7 2.32 7 3 C8.98 3 10.96 3 13 3 C13 3.33 13 3.66 13 4 C8.71 4 4.42 4 0 4 C0 2.68 0 1.36 0 0 Z " fill="#816A3E" transform="translate(175,175)"/>
<path d="M0 0 C0.66 0.99 1.32 1.98 2 3 C-2.29 3 -6.58 3 -11 3 C-11.33 2.34 -11.66 1.68 -12 1 C-3.50572831 -1.40671031 -3.50572831 -1.40671031 0 0 Z " fill="#5A3D23" transform="translate(38,27)"/>
<path d="M0 0 C0 0.66 0 1.32 0 2 C-7.43659188 4.01670288 -14.31604457 4.2137731 -22 4 C-22 3.67 -22 3.34 -22 3 C-21.31035156 2.96261719 -20.62070313 2.92523438 -19.91015625 2.88671875 C-14.13681544 2.48282248 -9.17026624 1.64939971 -3.77734375 -0.4765625 C-2 -1 -2 -1 0 0 Z " fill="#7F080A" transform="translate(148,232)"/>
<path d="M0 0 C0.66 0.66 1.32 1.32 2 2 C-1.52679099 4.35119399 -3.02879485 4.21443452 -7.1875 4.125 C-8.27417969 4.10695313 -9.36085938 4.08890625 -10.48046875 4.0703125 C-11.72763672 4.03550781 -11.72763672 4.03550781 -13 4 C-13.33 3.34 -13.66 2.68 -14 2 C-11.71059044 1.61145791 -9.41835426 1.2395372 -7.125 0.875 C-5.84882812 0.66617188 -4.57265625 0.45734375 -3.2578125 0.2421875 C-2.18273437 0.16226563 -1.10765625 0.08234375 0 0 Z " fill="#E0AD72" transform="translate(54,42)"/>
<path d="M0 0 C4.29 0 8.58 0 13 0 C13 0.33 13 0.66 13 1 C12.31292969 1.06058594 11.62585938 1.12117187 10.91796875 1.18359375 C9.56638672 1.30927734 9.56638672 1.30927734 8.1875 1.4375 C6.84751953 1.55931641 6.84751953 1.55931641 5.48046875 1.68359375 C2.87256441 1.93489767 2.87256441 1.93489767 0 3 C0 2.01 0 1.02 0 0 Z M-1 3 C-0.67 4.32 -0.34 5.64 0 7 C3.63 7 7.26 7 11 7 C11 7.33 11 7.66 11 8 C7.04 8 3.08 8 -1 8 C-1 6.35 -1 4.7 -1 3 Z " fill="#7B683C" transform="translate(178,154)"/>
<path d="M0 0 C0.99 0.33 1.98 0.66 3 1 C3 1.99 3 2.98 3 4 C3.66 4.33 4.32 4.66 5 5 C3.515 7.475 3.515 7.475 2 10 C1.01 9.67 0.02 9.34 -1 9 C-0.67 6.03 -0.34 3.06 0 0 Z " fill="#615032" transform="translate(285,136)"/>
<path d="M0 0 C0.66 0.33 1.32 0.66 2 1 C-10.83182544 8.40180947 -10.83182544 8.40180947 -16 10 C-16.99 9.67 -17.98 9.34 -19 9 C-18.34 9 -17.68 9 -17 9 C-16.67 8.34 -16.34 7.68 -16 7 C-14.38432615 6.25948282 -12.76251204 5.52961146 -11.11328125 4.8671875 C-7.99402611 3.58719741 -4.96302769 2.11840902 -1.91796875 0.671875 C-1.28503906 0.45015625 -0.65210937 0.2284375 0 0 Z " fill="#492405" transform="translate(114,28)"/>
<path d="M0 0 C4.21912747 0.4794463 6.79663178 1.16625119 10 4 C9.67 4.33 9.34 4.66 9 5 C11.475 5.99 11.475 5.99 14 7 C11.39417629 7.93065133 10.35801776 8.14917407 7.75 7.0625 C6.88375 6.5365625 6.88375 6.5365625 6 6 C6 5.34 6 4.68 6 4 C4.02 3.34 2.04 2.68 0 2 C0 1.34 0 0.68 0 0 Z " fill="#B39268" transform="translate(244,12)"/>
<path d="M0 0 C17.34010152 3.34010152 17.34010152 3.34010152 20 6 C17.66666667 5.66666667 15.33333333 5.33333333 13 5 C11.76378906 4.82339844 10.52757812 4.64679688 9.25390625 4.46484375 C5.8359375 3.9765625 2.41796875 3.48828125 -1 3 C-0.67 2.01 -0.34 1.02 0 0 Z " fill="#8D5D32" transform="translate(206,196)"/>
<path d="M0 0 C1.33998047 0.06960937 1.33998047 0.06960937 2.70703125 0.140625 C3.60808594 0.17671875 4.50914062 0.2128125 5.4375 0.25 C6.46810547 0.31960937 6.46810547 0.31960937 7.51953125 0.390625 C5.30584831 2.60430794 3.589365 4.25615421 0.40625 4.65625 C-1.55793662 4.64229486 -3.52073125 4.52348856 -5.48046875 4.390625 C-3.17521711 0.50003419 -3.17521711 0.50003419 0 0 Z " fill="#5C330F" transform="translate(136.48046875,195.609375)"/>
<path d="M0 0 C3.15802163 0.2493175 4.60852421 0.60852421 6.875 2.875 C7.24625 3.57625 7.6175 4.2775 8 5 C7.67 5.99 7.34 6.98 7 8 C6.01 6.35 5.02 4.7 4 3 C1.58414426 3.03093173 1.58414426 3.03093173 -1 4 C-2.85916824 6.96707046 -2.85916824 6.96707046 -4 10 C-4.33 9.01 -4.66 8.02 -5 7 C-2 2 -2 2 0 0 Z " fill="#693E17" transform="translate(255,98)"/>
<path d="M0 0 C3.97581136 0.56797305 6.8602593 1.44634423 10 4 C10.48828125 7.35546875 10.48828125 7.35546875 10.3125 11.1875 C10.26738281 12.45980469 10.22226562 13.73210938 10.17578125 15.04296875 C10.11777344 16.01878906 10.05976563 16.99460937 10 18 C9.67 18 9.34 18 9 18 C9 13.71 9 9.42 9 5 C7.02 4.34 5.04 3.68 3 3 C1.125 1.375 1.125 1.375 0 0 Z " fill="#BFA487" transform="translate(290,33)"/>
<path d="M0 0 C0.33 0 0.66 0 1 0 C1 3.63 1 7.26 1 11 C1.99 11.33 2.98 11.66 4 12 C2.35 12 0.7 12 -1 12 C-1.33 12.66 -1.66 13.32 -2 14 C-2 11.03 -2 8.06 -2 5 C-1.34 5 -0.68 5 0 5 C0 3.35 0 1.7 0 0 Z " fill="#8B622F" transform="translate(217,112)"/>
<path d="M0 0 C0.33 0 0.66 0 1 0 C1.05429278 2.70860665 1.09381211 5.41610901 1.125 8.125 C1.15013672 9.26582031 1.15013672 9.26582031 1.17578125 10.4296875 C1.21546246 15.03270731 0.75907577 18.66464004 -1 23 C-1.33 23 -1.66 23 -2 23 C-1.85775413 20.47891897 -1.71129879 17.95819597 -1.5625 15.4375 C-1.52318359 14.73302734 -1.48386719 14.02855469 -1.44335938 13.30273438 C-1.17481721 8.8201459 -0.69383803 4.43706503 0 0 Z " fill="#825422" transform="translate(218,94)"/>
<path d="M0 0 C0.66 0.33 1.32 0.66 2 1 C-0.77779328 4.99307785 -2.49526679 7.21133443 -7.3125 8.375 C-8.529375 8.58125 -9.74625 8.7875 -11 9 C-11 8.34 -11 7.68 -11 7 C-10.37351563 6.66226562 -9.74703125 6.32453125 -9.1015625 5.9765625 C-8.28429688 5.53054687 -7.46703125 5.08453125 -6.625 4.625 C-5.40683594 3.96371094 -5.40683594 3.96371094 -4.1640625 3.2890625 C-1.89185698 2.0556107 -1.89185698 2.0556107 0 0 Z " fill="#856959" transform="translate(43,18)"/>
<path d="M0 0 C0.78375 0.04125 1.5675 0.0825 2.375 0.125 C1.44847299 1.30039996 0.50836613 2.46510577 -0.4375 3.625 C-0.95957031 4.2746875 -1.48164062 4.924375 -2.01953125 5.59375 C-3.625 7.125 -3.625 7.125 -6.625 7.125 C-4.07142857 0.19387755 -4.07142857 0.19387755 0 0 Z " fill="#937666" transform="translate(86.625,1.875)"/>
<path d="M0 0 C4.62 0 9.24 0 14 0 C8.42609756 2.78695122 5.1031722 3.27740813 -1 2 C-0.67 1.34 -0.34 0.68 0 0 Z " fill="#AC824F" transform="translate(18,186)"/>
<path d="M0 0 C2.64 0 5.28 0 8 0 C8 0.33 8 0.66 8 1 C6.02 1.66 4.04 2.32 2 3 C2 4.32 2 5.64 2 7 C2.66 7.66 3.32 8.32 4 9 C2.35 9 0.7 9 -1 9 C-0.67 6.03 -0.34 3.06 0 0 Z " fill="#947C4B" transform="translate(176,164)"/>
<path d="M0 0 C2.0625 0.4375 2.0625 0.4375 4 1 C3.01 1.33 2.02 1.66 1 2 C0.67 2.99 0.34 3.98 0 5 C-4.455 5.495 -4.455 5.495 -9 6 C-7.38371879 2.76743757 -4.23006285 2.32663296 -1 1 C-0.67 0.67 -0.34 0.34 0 0 Z " fill="#81552E" transform="translate(64,33)"/>
<path d="M0 0 C0.97533063 2.63339271 1.019574 3.92348347 0.3125 6.6875 C-1 9 -1 9 -3.125 9.8125 C-3.74375 9.874375 -4.3625 9.93625 -5 10 C-3.66511872 6.40608886 -2.03977277 3.24509304 0 0 Z " fill="#9DA6AE" transform="translate(80,225)"/>
<path d="M0 0 C4.28477792 2.30718811 7.72291137 4.32966073 11 8 C10.67 8.99 10.34 9.98 10 11 C9.46375 10.2575 8.9275 9.515 8.375 8.75 C5.85205661 5.82869713 3.20350831 4.11140321 0 2 C0 1.34 0 0.68 0 0 Z " fill="#858984" transform="translate(205,210)"/>
<path d="M0 0 C0.89203125 0.00902344 1.7840625 0.01804688 2.703125 0.02734375 C3.37859375 0.03894531 4.0540625 0.05054688 4.75 0.0625 C4.75 0.3925 4.75 0.7225 4.75 1.0625 C2.11 1.0625 -0.53 1.0625 -3.25 1.0625 C-3.25 1.7225 -3.25 2.3825 -3.25 3.0625 C-5.56 3.0625 -7.87 3.0625 -10.25 3.0625 C-9.25 1.0625 -9.25 1.0625 -7.515625 0.44140625 C-4.96855716 0.01543111 -2.58143831 -0.03396629 0 0 Z " fill="#42150D" transform="translate(206.25,205.9375)"/>
<path d="M0 0 C0.33 0 0.66 0 1 0 C1.08333357 4.8333472 0.95261487 9.23692563 0 14 C-2.29013653 10.5647952 -2.17842973 9.014669 -2 5 C-1.34 5 -0.68 5 0 5 C0 3.35 0 1.7 0 0 Z " fill="#CDC0A4" transform="translate(5,142)"/>
<path d="M0 0 C1.76923828 0.01353516 1.76923828 0.01353516 3.57421875 0.02734375 C4.47785156 0.03894531 5.38148437 0.05054688 6.3125 0.0625 C6.3125 0.3925 6.3125 0.7225 6.3125 1.0625 C5.73242188 1.12308594 5.15234375 1.18367188 4.5546875 1.24609375 C0.11157137 1.72266561 -4.28655423 2.27258666 -8.6875 3.0625 C-9.0175 2.4025 -9.3475 1.7425 -9.6875 1.0625 C-6.26517028 -0.07827657 -3.60076783 -0.03565117 0 0 Z " fill="#CA945C" transform="translate(116.6875,38.9375)"/>
<path d="M0 0 C0.66 0.33 1.32 0.66 2 1 C0.4169423 5.2742558 -2.50568404 7.26531794 -6 10 C-4.6302836 6.00499382 -2.74277578 3.19990508 0 0 Z " fill="#848D90" transform="translate(87,215)"/>
<path d="M0 0 C0.66 0 1.32 0 2 0 C2 1.98 2 3.96 2 6 C0.35 6 -1.3 6 -3 6 C-1.125 1.125 -1.125 1.125 0 0 Z " fill="#292B31" transform="translate(95,209)"/>
<path d="M0 0 C0.33 0 0.66 0 1 0 C1 1.98 1 3.96 1 6 C2.32 5.01 3.64 4.02 5 3 C5 4.98 5 6.96 5 9 C3.35 8.67 1.7 8.34 0 8 C0 5.36 0 2.72 0 0 Z " fill="#60421A" transform="translate(218,115)"/>
<path d="M0 0 C2.31 0.33 4.62 0.66 7 1 C7.33 2.32 7.66 3.64 8 5 C4.20411134 4.45773019 2.52788007 2.79872437 0 0 Z " fill="#BD9D7D" transform="translate(280,29)"/>
<path d="M0 0 C-5.41538462 4.06153846 -5.41538462 4.06153846 -8.375 3.75 C-8.91125 3.5025 -9.4475 3.255 -10 3 C-6.86618053 -0.60389239 -4.59270471 -1.53090157 0 0 Z " fill="#4B2407" transform="translate(66,33)"/>
<path d="M0 0 C0.99 0.33 1.98 0.66 3 1 C-0.465 3.97 -0.465 3.97 -4 7 C-4.33 6.34 -4.66 5.68 -5 5 C-3.35 3.35 -1.7 1.7 0 0 Z " fill="#6B513D" transform="translate(79,24)"/>
<path d="M0 0 C0.75 1.75 0.75 1.75 1 4 C-0.8125 6.25 -0.8125 6.25 -3 8 C-3.66 8 -4.32 8 -5 8 C-3.8141763 4.62496331 -2.72426311 2.35277269 0 0 Z " fill="#A77540" transform="translate(146,12)"/>
<path d="M0 0 C0.66 0.33 1.32 0.66 2 1 C1.34 2.32 0.68 3.64 0 5 C-1.65 5 -3.3 5 -5 5 C-4.1875 3.0625 -4.1875 3.0625 -3 1 C-2.01 0.67 -1.02 0.34 0 0 Z " fill="#768592" transform="translate(77,234)"/>
<path d="M0 0 C0.33 0 0.66 0 1 0 C1.35233161 5.37305699 1.35233161 5.37305699 1 8 C-1 10 -1 10 -3 11 C-2.69078116 9.54096742 -2.37751201 8.08279278 -2.0625 6.625 C-1.88847656 5.81289062 -1.71445313 5.00078125 -1.53515625 4.1640625 C-1 2 -1 2 0 0 Z " fill="#495E71" transform="translate(84,221)"/>
<path d="M0 0 C0 3.60777515 -0.9904432 5.06295544 -3 8 C-3.99 8.495 -3.99 8.495 -5 9 C-4.7215625 7.824375 -4.7215625 7.824375 -4.4375 6.625 C-3.74037734 4.02910225 -3.74037734 4.02910225 -5 2 C-3.35 1.34 -1.7 0.68 0 0 Z " fill="#3B474F" transform="translate(92,212)"/>
<path d="M0 0 C3.54971796 0.60852308 6.76693609 1.38346804 10 3 C10.33 3.99 10.66 4.98 11 6 C7.2089881 4.55049545 3.6125362 2.84827434 0 1 C0 0.67 0 0.34 0 0 Z " fill="#C2A578" transform="translate(252,16)"/>
<path d="M0 0 C2.97 0.99 5.94 1.98 9 3 C8.67 3.66 8.34 4.32 8 5 C5.36 4.34 2.72 3.68 0 3 C0 2.01 0 1.02 0 0 Z " fill="#AF9579" transform="translate(235,7)"/>
<path d="M0 0 C0 0.99 0 1.98 0 3 C-0.66 3 -1.32 3 -2 3 C-1.34 5.31 -0.68 7.62 0 10 C-0.99 10.66 -1.98 11.32 -3 12 C-3.08090971 10.37581255 -3.13914995 8.75048255 -3.1875 7.125 C-3.22230469 6.22007812 -3.25710937 5.31515625 -3.29296875 4.3828125 C-3.19628906 3.59648438 -3.09960938 2.81015625 -3 2 C-2.01 1.34 -1.02 0.68 0 0 Z " fill="#E1C4A1" transform="translate(24,0)"/>
<path d="M0 0 C2.875 -0.1875 2.875 -0.1875 6 0 C6.66 0.99 7.32 1.98 8 3 C5.36 3 2.72 3 0 3 C0 2.01 0 1.02 0 0 Z " fill="#897748" transform="translate(13,166)"/>
<path d="M0 0 C0.66 0.33 1.32 0.66 2 1 C-0.06756277 3.7972908 -1.14440371 4.02692273 -4.6875 4.6875 C-5.780625 4.790625 -6.87375 4.89375 -8 5 C-8 4.01 -8 3.02 -8 2 C-6.865625 1.855625 -5.73125 1.71125 -4.5625 1.5625 C-1.19222799 1.38828522 -1.19222799 1.38828522 0 0 Z " fill="#94602E" transform="translate(89,44)"/>
<path d="M0 0 C0.33 0 0.66 0 1 0 C1.25 2.75 1.25 2.75 1 6 C-1 8.375 -1 8.375 -3 10 C-2.39009109 6.44219804 -1.4216319 3.3171411 0 0 Z " fill="#7A5939" transform="translate(39,32)"/>
<path d="M0 0 C0.66 0.33 1.32 0.66 2 1 C1.01 2.485 1.01 2.485 0 4 C-0.66 4 -1.32 4 -2 4 C-2.28875 4.639375 -2.5775 5.27875 -2.875 5.9375 C-4 8 -4 8 -6 9 C-6 7.68 -6 6.36 -6 5 C-5.01 5 -4.02 5 -3 5 C-3 4.34 -3 3.68 -3 3 C-1.5 1.375 -1.5 1.375 0 0 Z " fill="#69472E" transform="translate(73,32)"/>
<path d="M0 0 C4.29 0 8.58 0 13 0 C12.34 1.32 11.68 2.64 11 4 C10.67 3.34 10.34 2.68 10 2 C7.64400765 1.53248212 7.64400765 1.53248212 4.9375 1.375 C4.01839844 1.30023437 3.09929688 1.22546875 2.15234375 1.1484375 C1.08693359 1.07496094 1.08693359 1.07496094 0 1 C0 0.67 0 0.34 0 0 Z " fill="#E5C89F" transform="translate(27,30)"/>
<path d="M0 0 C0.66 0 1.32 0 2 0 C1.6875 1.9375 1.6875 1.9375 1 4 C0.01 4.33 -0.98 4.66 -2 5 C-2.33 5.99 -2.66 6.98 -3 8 C-3.33 7.34 -3.66 6.68 -4 6 C-2.7260411 3.96166576 -1.38938077 1.96147874 0 0 Z " fill="#6C5542" transform="translate(108,20)"/>
<path d="M0 0 C-1.28524261 0.86380259 -2.57842419 1.71580369 -3.875 2.5625 C-4.59429687 3.03816406 -5.31359375 3.51382813 -6.0546875 4.00390625 C-6.69664062 4.33261719 -7.33859375 4.66132813 -8 5 C-8.66 4.67 -9.32 4.34 -10 4 C-7.39928297 0.98864344 -3.94054294 -1.97027147 0 0 Z " fill="#410805" transform="translate(196,210)"/>
<path d="M0 0 C2.5 1.375 2.5 1.375 5 3 C5 3.66 5 4.32 5 5 C4.01 5 3.02 5 2 5 C1.34 5.99 0.68 6.98 0 8 C0 5.36 0 2.72 0 0 Z " fill="#9E080B" transform="translate(99,208)"/>
<path d="M0 0 C1.32 0.33 2.64 0.66 4 1 C0.535 3.97 0.535 3.97 -3 7 C-3.66 6.67 -4.32 6.34 -5 6 C-3.35 4.02 -1.7 2.04 0 0 Z " fill="#B37D48" transform="translate(94,42)"/>
<path d="M0 0 C0.66 0.33 1.32 0.66 2 1 C0.22555028 3.24606427 -0.58352485 3.95081002 -3.48046875 4.29296875 C-4.82044922 4.24076172 -4.82044922 4.24076172 -6.1875 4.1875 C-7.53908203 4.14689453 -7.53908203 4.14689453 -8.91796875 4.10546875 C-9.60503906 4.07066406 -10.29210937 4.03585938 -11 4 C-11 3.67 -11 3.34 -11 3 C-8.02148438 2.70703125 -8.02148438 2.70703125 -5.04296875 2.4140625 C-2.70011858 2.07334609 -2.70011858 2.07334609 0 0 Z " fill="#582E0F" transform="translate(127,25)"/>
<path d="M0 0 C0.33 0 0.66 0 1 0 C1 2.31 1 4.62 1 7 C0.01 7 -0.98 7 -2 7 C-2.125 4.625 -2.125 4.625 -2 2 C-1.34 1.34 -0.68 0.68 0 0 Z " fill="#C48D57" transform="translate(149,9)"/>
<path d="M0 0 C1.98 0 3.96 0 6 0 C4.68 0.33 3.36 0.66 2 1 C2 1.99 2 2.98 2 4 C0.02 4.99 0.02 4.99 -2 6 C-1.34 4.02 -0.68 2.04 0 0 Z " fill="#D8A76B" transform="translate(153,5)"/>
<path d="M0 0 C0.66 0.33 1.32 0.66 2 1 C1.34 2.32 0.68 3.64 0 5 C-0.5625 3.0625 -0.5625 3.0625 -1 1 C-0.67 0.67 -0.34 0.34 0 0 Z M-2 5 C-1.67 5.66 -1.34 6.32 -1 7 C-2.98 7 -4.96 7 -7 7 C-7 6.67 -7 6.34 -7 6 C-5.35 5.67 -3.7 5.34 -2 5 Z " fill="#885B2D" transform="translate(259,142)"/>
<path d="M0 0 C0.66 0.66 1.32 1.32 2 2 C5.08347826 2.16681109 5.08347826 2.16681109 8 2 C6.8125 3.5625 6.8125 3.5625 5 5 C2.3125 4.6875 2.3125 4.6875 0 4 C0 2.68 0 1.36 0 0 Z " fill="#77461D" transform="translate(82,40)"/>
<path d="M0 0 C0.99 0.33 1.98 0.66 3 1 C1.515 3.475 1.515 3.475 0 6 C-1.32 5.67 -2.64 5.34 -4 5 C-2.68 3.35 -1.36 1.7 0 0 Z " fill="#5B402F" transform="translate(121,3)"/>
</svg>
